<svg width="758" height="190" viewBox="0 0 758 190" fill="none" xmlns="http://www.w3.org/2000/svg">
<path fill-rule="evenodd" clip-rule="evenodd" d="M566.111 189.697H571.546C573.349 187.941 574.406 187.407 575.756 184.899C577.378 181.886 580.965 168.519 582.062 164.718L601.718 96.579C602.397 94.2331 604.058 84.0554 607.883 85.6942C610.492 88.3226 609.786 91.9603 609.785 96.6129L609.785 185.823L635.264 185.836L635.268 89.1123C635.062 62.653 610.97 62.7559 599.706 72.5299C594.505 77.0424 592.743 86.5938 590.354 94.9239C585.637 111.372 581.518 128.111 576.344 144.423C575.129 142.773 569.66 124.052 568.419 120.221C565.008 109.689 556.877 80.1791 551.182 73.0526C544.607 64.8261 524.438 63.4335 518.122 75.6535C515.766 80.2137 515.838 83.5071 515.68 89.1132C515.379 99.7438 515.601 110.653 515.601 121.318C515.601 142.879 515.601 164.44 515.6 185.873L527.073 185.7C527.073 168.651 527.073 151.602 527.073 134.552C527.073 125.506 525.973 90.8786 528.396 85.253C530.346 85.3607 530.169 85.5394 530.93 87.5638L559.04 179.02C561.668 187.746 562.948 186.543 566.111 189.697Z" fill="black"/>
<path fill-rule="evenodd" clip-rule="evenodd" d="M388.454 51.8189C389.53 49.2607 392.369 48.498 394.658 45.6154C394.503 47.5599 393.358 47.9979 392.185 48.9879C390.574 50.3471 390.545 50.7424 388.454 51.8189ZM363.79 57.2417C366.003 56.3444 367.506 58.7077 371.241 56.7023C374.033 55.2029 374.017 54.5828 376.027 52.6663C377.944 50.838 378.678 50.8191 380.479 48.2903C380.985 47.5802 381.586 46.6702 382.251 45.6592C382.564 45.184 382.644 44.9187 383.118 44.3356C383.498 43.8693 383.486 43.9332 383.825 43.6155L384.41 43.1797C385.427 44.4523 385.443 43.8821 386.064 45.6025L375.825 55.5413C374.051 57.4796 373.839 59.2363 369.945 59.7571C367.299 60.1107 363.74 58.9909 363.79 57.2417ZM362.63 48.2494C359.91 46.2746 359.433 41.9776 359.631 38.8763C359.804 36.1631 359.906 29.6715 361.578 28.4344C363.993 26.6492 364.098 28.5376 363.934 30.8565C363.797 32.8096 363.613 34.6359 363.475 36.6131C363.21 40.428 362.903 44.351 362.63 48.2494ZM338.559 34.1622C332.769 34.4338 327.053 29.3016 333.072 25.4648C336.781 26.4339 336.879 30.6216 338.559 34.1622ZM396.158 18.1708C397.555 18.3242 396.777 17.2169 398.623 20.8963C399.251 22.1468 399.913 23.1789 400.016 24.4908L395.249 24.7016L396.158 18.1708ZM388.015 20.5139C388.456 21.39 388.79 21.9103 389.246 22.7915C390.09 24.4212 390.907 25.9952 391.553 27.5999C389.973 27.7364 390.443 27.6763 389.399 26.1783C388.219 24.486 384.737 20.5651 386.452 18.1432C387.49 18.9625 387.353 19.2 388.015 20.5139ZM340.132 20.2932C342.004 19.5227 343.46 20.9722 345.502 21.0383C347.858 21.1147 348.879 17.9638 348.899 17.8519C348.932 17.6678 349.031 17.6318 349.118 17.5378C351.243 21.4812 354.436 18.2671 360.057 19.3515C364.656 20.2388 367.712 18.4207 371.947 17.6204C369.622 22.3097 362.721 23.4716 356.235 22.7372C342.411 21.1716 347.375 25.0083 343.274 22.4618C342.029 21.6887 340.924 21.1548 340.132 20.2932ZM372.668 0H368.914L366.058 1.20308C364.861 1.46455 363.854 1.57079 362.629 1.55786C360.345 1.53359 357.798 0.991867 356.373 0H351.323C351.864 0.586267 353.225 1.98762 353.601 2.44535C355.043 4.19829 354.568 4.60721 353.419 5.68001C351.744 5.10628 352.267 3.8332 351.16 2.21867C348.719 3.19254 346.591 4.74226 344.361 5.97546L342.935 6.81335C342.854 6.87362 342.744 6.97107 342.673 7.0284L342.17 7.49959C345.948 10.5025 349.385 7.09201 350.303 13.5673C351.998 13.814 353.161 13.8584 354.411 14.5581C353.417 18.7493 351.686 16.4036 348.071 16.2402C347.397 16.3956 349.096 17.092 343.138 17.6187C342.274 11.0882 337.085 15.0009 332.663 10.9917C329.175 7.82841 328.678 10.7736 326.506 10.8254C324.355 10.8767 322.159 8.31695 320.415 9.37268C320.84 10.7548 321.496 10.8685 322.636 11.764L328.207 16.7739C329.386 17.9655 330.135 18.2341 330.892 19.5192C321.047 23.9704 318.21 16.6942 314.379 14.8066C313.171 18.9771 306.955 27.2721 316.043 29.3648C319.234 30.0997 320.432 28.5492 323.284 29.1988L324.007 32.8217L315.573 30.9683C317.224 33.0068 318.765 34.4104 320.542 36.3577C321.709 37.6375 325.314 40.7194 325.516 42.294C323.701 42.1183 318.49 36.8136 317.178 35.302C314.85 32.62 311.799 30.4091 309.303 27.9563C309.383 31.2336 311.65 34.1929 312.898 36.9461C315.502 42.694 313.543 43.5465 314.491 48.0551C315.081 50.86 320.371 51.7665 322.82 52.6031C326.149 53.7404 329.363 54.7961 332.55 55.8356C336.93 50.2611 331.393 50.1888 342.695 48.8597L342.475 54.3327L346.769 56.3158L347.63 54.3723C349.414 54.9032 351.437 57.7744 352.371 59.1715L353.005 58.342C353.817 57.4772 355.314 56.8775 356.889 56.7922C359.631 56.6436 360.673 57.0174 361.788 58.6736C361.282 59.1304 362.192 58.7267 360.648 59.3319C360.285 59.4739 359.699 59.5914 359.277 59.7219C355.884 60.7718 355.033 63.2739 355.321 66.8645C356.51 65.728 358.325 63.5777 359.514 62.5907L359.559 79.851C361.012 77.5172 362.244 70.773 364.503 69.6216L363.019 118.336C361.996 117.784 360.854 116.959 360.201 116.242C364.689 123.652 362.823 127.091 362.735 136.301C362.668 143.31 362.477 152.094 361.305 158.706C356.998 156.946 355.874 154.873 350.46 157.697C347.695 159.138 343.537 156.167 340.34 155.072C333.095 152.591 321.717 150.617 318.264 157.467C324.404 158.277 328.401 156.204 335.424 158.219C343.087 160.418 347.494 164.488 354.067 167.83C355.894 168.759 358.935 170.161 360.304 171.33C364.048 174.528 361.956 183.339 362.38 188.623L367.015 188.72C368.197 185.408 369.569 176.916 371.99 175.231C374.033 173.809 381.056 174.495 386.719 171.005C400.401 162.575 396.198 174.034 416.921 167.282C416.3 166.672 417.247 167.443 416.171 166.609L409.573 162.603C407.06 161.084 404.738 159.381 402.36 157.91C393.171 152.226 391.387 158.385 384.496 160.138C384.964 158.635 388.174 156.134 390.876 149.559C393.462 143.269 394.731 144.349 394.729 136.317C394.728 131.555 394.401 105.686 393.375 103.421C391.036 102.986 390.699 104.824 389.566 106.348L370.912 131.368C369.842 132.794 368.842 134.537 367.374 135.653C367.399 124.623 368.924 79.3568 371.263 68.6521C371.713 66.5928 371.707 65.6572 373.085 64.7103C377.811 61.4628 382.025 65.3101 384.382 69.1253C385.604 68.5308 387.04 67.2141 388.477 68.5201C390.137 70.0293 392.802 78.6649 394.284 81.0365C396.569 76.6416 393.696 72.9192 392.738 69.3715L425.096 62.8169C420.663 62.1741 407.383 63.8491 402.542 64.651C395.146 65.8758 387.193 69.576 384.662 61.7359C388.479 59.9337 405.041 48.6964 406.719 45.4924C399.969 42.7583 400.892 48.9367 395.443 49.9315C398.848 36.2448 405.251 52.2379 419.816 25.8056C415.669 29.3719 411.726 25.6509 406.508 23.1063C406.436 23.0712 406.293 23.0068 406.196 22.94L408.717 18.4047C401.591 15.8821 403.692 14.0103 405.672 8.54533C402.211 10.3468 400.033 15.4728 395.826 15.9349C399.071 9.6252 398.336 13.0444 394.859 9.22359C393.616 7.85813 394.507 7.03134 393.07 5.21041C391.494 6.06201 391.786 7.468 390.423 8.95907L390.783 6.25708C386.906 9.40908 386.633 10.1803 382.482 6.31213L379.243 7.69934C377.764 4.08227 375.638 1.986 372.668 0Z" fill="black"/>
<path fill-rule="evenodd" clip-rule="evenodd" d="M253.885 79.6282C273.908 79.6282 288.938 78.6364 291.952 98.9221C293.262 107.737 291.6 116.515 286.697 121.264C281.308 126.485 273.919 126.924 265.133 128.292C266.128 131.62 268.36 135.345 269.875 138.623C271.441 142.01 272.943 145.038 274.656 148.395C277.879 154.714 281.177 161.553 284.203 167.957C285.805 171.349 287.273 174.245 288.734 178.009C290.184 181.746 291.364 185.183 295.237 186.078C298.551 186.843 305.817 186.056 309.691 186.059C314.581 186.063 319.471 186.059 324.551 185.957L294.362 129.7C295.68 128.971 301.146 127.905 303.159 127.138C324.677 118.933 324.922 89.1518 307.916 77.65C297.759 70.7808 285.49 69.8109 271.311 69.8109C265.01 69.8109 230.113 69.0944 227.085 70.308L227.085 185.836H253.662L253.885 79.6282Z" fill="black"/>
<path fill-rule="evenodd" clip-rule="evenodd" d="M132.431 140.177C132.61 137.379 135.459 129.124 136.402 125.818L144.716 97.0906C145.807 93.4741 147.392 84.8492 151.305 85.0398C155.551 85.2466 156.843 92.6247 158.063 96.9181L166.315 125.73C167.19 128.826 170.077 137.444 170.093 140.172L132.431 140.177ZM129.396 150.883L172.492 150.875C173.994 151.255 176.79 162.461 177.403 164.488C184.673 188.528 182.221 186.072 192.785 186.06C198.607 186.053 204.955 186.303 210.709 186.004C210.669 182.671 192.474 124.786 191.019 119.994C187.769 109.286 184.343 98.0694 180.965 87.2622C173.892 64.6324 154.138 62.008 143.114 72.5228C139.148 76.3054 137.554 79.6693 135.685 86.2676C132.487 97.556 129.32 108.346 126.137 119.515C122.996 130.539 119.805 141.541 116.584 152.771C114.961 158.431 113.425 163.997 111.806 169.584C110.817 173 107.522 183.186 107.419 185.956L118.942 185.906L129.396 150.883Z" fill="black"/>
<path fill-rule="evenodd" clip-rule="evenodd" d="M691.126 96.8915C692.248 93.0515 693.036 84.8925 697.476 84.7706C702.155 84.6423 703.024 92.5763 704.307 96.8407C705.763 101.681 707.058 106.42 708.431 111.235C709.913 116.434 716.331 136.395 716.354 140.286L678.635 140.15L691.126 96.8915ZM757.023 186.059V183.988C755.934 182.264 728.929 92.7358 726.904 86.1551C723.818 76.1244 716.326 66.7784 704.083 66.7126C690.878 66.6414 684.869 75.9739 681.775 87.0866C678.702 98.1241 675.428 108.941 672.292 119.973C670.39 126.66 654.517 180.897 653.542 185.976C655.97 186.171 658.43 186.027 660.867 186.087C663.67 186.156 664.936 186.465 665.844 184.1L675.714 150.767L709.819 150.875C721.079 151.018 718.659 147.619 725.125 169.105C726.774 174.586 728.319 181.443 730.938 185.728C737.347 186.767 749.887 186.059 757.023 186.059Z" fill="black"/>
<path fill-rule="evenodd" clip-rule="evenodd" d="M436.525 91.7603C436.525 82.9441 445.523 78.6972 453.914 77.5976C462.748 76.4399 473.45 78.6609 482.293 79.408V69.5924C474.149 69.1275 466.419 67.4968 457.919 67.4968C433.898 67.4968 412.589 77.5312 412.589 101.466C412.589 114.483 419.225 121.151 427.272 126.388C442.38 136.221 470.972 146.585 466.76 163.671C462.176 182.268 429.986 176.365 415.568 174.477V184.072C430.053 185.668 432.758 186.829 448.214 186.829C471.355 186.829 492.771 175.614 492.771 152.64V150.434C492.771 127.025 466.108 121.716 444.65 105.058C440.697 101.988 436.525 97.6087 436.525 91.7603Z" fill="black"/>
<path fill-rule="evenodd" clip-rule="evenodd" d="M0 120.765V133.12C2.15907 137.866 0.358265 153.475 15.1275 171.035C18.6479 175.221 23.9229 179.513 29.9517 182.699C39.7965 187.902 47.4517 188.65 49.3527 189.697H65.1276C67.7739 188.213 77.8035 187.814 88.9005 179.333C94.4364 175.102 100.948 167.862 104.555 160.581C104.167 160.101 104.44 160.311 103.666 159.701L95.6205 154.818C94.7775 156.395 93.298 158.016 92.1079 159.6C88.1969 164.804 84.8069 169.469 79.5124 173.482C72.3917 178.88 61.6467 181.31 51.5236 177.439C34.432 170.903 28.4801 147.818 28.0284 130.934C27.4496 109.307 32.1961 88.2462 47.0847 80.1657C59.4431 73.4585 75.7451 75.5802 85.87 87.07C89.5895 91.2908 90.4371 93.9337 93.0837 97.5101C94.7409 97.1797 101.344 93.825 102.571 92.6426C98.9276 82.2577 89.3456 74.683 79.3848 70.6027C55.5605 60.8433 28.3211 69.4929 13.3641 88.3637C-0.101733 105.354 1.93707 115.922 0 120.765Z" fill="black"/>
<path fill-rule="evenodd" clip-rule="evenodd" d="M328.218 58.1757L322.688 60.6275C325.804 62.0114 344.646 63.5264 348.954 63.5264C350.95 63.5264 355.676 62.3724 354.939 59.7471C351.929 60.7751 349.893 61.6517 346.307 61.6517C341.63 61.6517 315.543 53.2743 308.793 50.7451C304.817 49.2553 301.241 47.0099 297.282 45.7407C298.122 47.2282 297.34 46.1675 298.631 47.2579C299.261 47.7889 299.655 48.0331 300.15 48.3619C309.208 54.3783 323.986 54.7982 328.218 58.1757Z" fill="black"/>
<path fill-rule="evenodd" clip-rule="evenodd" d="M356.838 111.945C357.755 110.941 357.49 110.88 357.454 107.648L357.446 71.8256C353.692 72.013 354.436 77.2476 354.736 80.307C355.088 83.8985 355.153 87.5908 355.326 91.3096C355.52 95.4558 355.852 109.047 356.838 111.945Z" fill="black"/>
<path fill-rule="evenodd" clip-rule="evenodd" d="M340.115 81.1724C345.539 85.5303 354.516 77.4378 354.057 71.6582L340.115 81.1724Z" fill="black"/>
</svg>
