<svg width="173" height="211" viewBox="0 0 173 211" fill="none" xmlns="http://www.w3.org/2000/svg">
<path fill-rule="evenodd" clip-rule="evenodd" d="M101.445 159.585C101.586 159.037 101.767 158.328 101.687 157.556C100.25 158.801 98.2905 158.724 97.8313 158.685C97.7477 158.697 97.7252 158.675 97.7252 158.675C97.7252 158.675 97.7677 158.68 97.8313 158.685C97.9991 158.662 98.4161 158.504 99.4188 157.754C100.602 156.869 100.833 155.889 100.823 154.873C100.82 154.598 100.801 154.321 100.777 154.042C100.717 154.011 100.651 153.983 100.58 153.958C99.8007 153.68 98.3759 153.723 97.0539 153.315C98.6719 152.471 101.002 150.769 101.712 147.749C102.293 144.741 102.99 141.426 103.614 139.24C105.018 134.327 105.29 131.301 105.29 131.301C105.29 131.301 102.405 136.239 100.77 137.697C100.77 137.697 103.047 131.803 104.536 127.355C105.417 124.721 104.985 122.124 105.025 120.033C105.078 117.33 105.827 116.145 105.827 116.145C105.827 116.145 103.107 116.076 102.33 116.037C101.504 115.997 99.6889 115.649 98.3705 115.378C101.661 115.204 105.849 114.571 108.269 113.504C108.762 109.43 108.394 107.911 108.394 107.911C106.525 111.096 98.3789 112.114 98.3789 112.114C98.3789 112.114 98.7909 110.222 102.226 105.778C107.294 99.2212 106.52 89.6203 106.52 89.6203C104.063 94.8537 100.62 96.5931 100.62 96.5931C105.353 90.6196 104.903 84.1267 104.903 84.1267C104.903 84.1267 103.931 85.6119 100.481 88.8039C97.0327 91.9957 95.4132 93.3709 95.4132 93.3709C95.4132 93.3709 98.4836 90.4043 100.481 84.7107C102.731 78.2996 101.869 75.5635 101.869 75.5635C101.869 75.5635 100.929 76.2971 97.4759 76.7599C88.3625 77.9819 84.5397 76.9976 80.2408 76.764C85.4 76.6295 93.6935 76.068 96.8009 74.4501C101.157 72.1823 103.179 70.6704 103.482 69.3097C103.784 67.9491 101.214 64.608 101.214 64.608C99.8532 68.0704 98.7949 67.8339 98.7949 67.8339C100.458 62.2761 97.8879 54.8101 97.8879 54.8101C98.1901 62.5352 87.462 73.4169 87.462 73.4169C88.8596 70.7708 90.3955 65.5663 91.6517 60.1831C90.0853 61.5357 88.7157 62.0813 88.7157 62.0813C88.7157 62.0813 95.5755 51.6459 91.9936 41.2273C91.976 41.1761 91.9621 41.1251 91.944 41.0739C91.944 41.0739 93.0373 41.5705 94.1277 42.8595C94.3921 42.7695 95.4239 42.4125 95.8011 42.1861C96.2352 41.9256 96.2352 40.9705 96.4091 39.1469C96.5827 37.3233 95.7257 34.9259 95.1556 33.6319C94.2912 31.6703 92.474 32.0028 92.474 32.0028C93.1687 33.4231 92.6751 36.7124 92.6751 36.7124C92.4147 35.5803 90.07 32.6343 89.3753 31.9396C88.6807 31.2449 87.3783 31.3317 87.3783 31.3317C87.3783 31.3317 86.6836 32.6343 85.7284 33.85C84.7733 35.0657 83.0365 37.5839 82.3419 38.1049C82.3419 38.1049 81.6179 41.0748 79.3105 42.4124C79.0045 42.5896 78.6799 42.8035 78.3467 43.0281C79.0941 41.9232 79.9541 40.5557 80.4768 39.4061C81.5532 37.0377 87.2225 29.2872 88.3708 27.7741C89.5191 26.2609 89.8779 25.5555 91.026 22.4148C92.1741 19.2741 89.9729 8.24027 90.0429 6.84853C90.0632 6.4488 90.0483 6.1112 90.006 5.80267C90.5932 6.4684 91.2167 7.22587 91.9693 7.52947C92.7617 7.8488 93.3693 7.938 93.5124 8.138C93.6555 8.33786 94.5965 9.68453 94.5965 9.68453C94.5965 9.68453 98.7536 20.9984 98.5799 23.504C98.4061 26.0096 98.9272 28 98.9272 28C101.098 28.7493 102.053 31.1581 102.053 31.1581C102.053 31.1581 101.011 30.3765 99.4483 29.6713C97.8851 28.9664 97.1904 29.5084 96.4957 29.8556C96.4957 29.8556 97.1781 30.9072 97.2204 33.9477C97.2615 36.9155 96.4091 39.1469 96.4091 39.1469C96.4091 39.1469 103.182 36.1945 105.179 34.5447C107.176 32.8948 107.611 31.5923 107.176 29.6713C106.742 27.7507 106.466 25.6875 106.466 25.6875C105.728 26.9445 104.805 27.4135 104.805 27.4135C105.742 24.7661 104.832 21.7473 104.832 21.7473C104.658 23.712 102.661 25.8811 102.661 25.8811C102.661 25.8811 103.356 20.8248 102.661 17.6988C101.966 14.5727 98.4841 6.69453 98.4841 6.69453L96.0764 8.5464C96.7153 7.71187 97.1616 6.91707 97.6824 6.36427C98.3811 5.62293 98.318 5.2248 97.9827 4.98133C97.6473 4.73773 97.0436 5.1672 96.5229 5.73187C96.5229 5.73187 96.3315 5.09467 96.7101 4.4412C97.0073 3.928 96.7657 2.88333 96.648 2.4568L99.0688 2.02107C99.4275 1.95733 99.6663 1.6148 99.6024 1.25613C99.5387 0.897734 99.1965 0.658799 98.838 0.722399L94.5852 1.48333C94.5892 1.45533 94.5919 1.42613 94.5959 1.40053C94.6528 1.05773 94.9917 0.855733 94.9917 0.855733C94.9917 0.855733 94.7589 -0.146 94.2792 0.338C93.7995 0.822133 93.492 1.67893 93.492 1.67893C93.492 1.67893 92.7501 0.988533 92.6676 0C92.6676 0 91.7028 0.778666 92.0892 1.92987C92.0892 1.92987 91.3423 1.3964 91.148 0.240799C91.148 0.240799 89.5813 0.739867 89.9061 2.32053C89.906 2.3204 89.4036 1.74133 89.1833 0.885999C89.1833 0.885999 88.9611 0.719732 88.85 2.12573C88.8407 2.25373 88.8407 2.3824 88.842 2.51093L88.6216 2.5504C88.1417 1.53893 87.6037 0.546266 87.0328 1.1496C86.2237 2.0044 86.0749 2.89987 86.0749 2.89987C85.5184 1.68027 85.6076 0.866933 85.6076 0.866933C84.9403 1.6992 84.6972 3.25253 84.6972 3.25253L84.6945 3.25307L84.6865 3.25467C84.6328 3.25973 84.3925 3.2344 83.9831 2.50373C83.6696 1.94413 83.9791 1.1252 83.9791 1.1252C83.9791 1.1252 83.6359 1.2524 83.0879 1.9204C82.5399 2.58853 82.3765 3.668 82.3765 3.66813C81.6271 2.65427 81.7783 1.91 81.7783 1.91C81.7783 1.91 81.0955 1.7276 80.6443 2.0896C80.1929 2.452 80.2716 2.948 80.5111 4C80.5112 4.00067 80.5115 4.00107 80.5115 4.00173L78.4751 4.36613C78.3036 4.39653 78.1609 4.49187 78.0641 4.6208C73.6625 5.3836 34.4693 12.1284 29.488 12.9915C29.4833 12.992 29.4785 12.9873 29.4739 12.9884C29.1817 13.0571 28.4027 13.1568 27.8672 13.228C27.858 13.2291 25.0469 13.5647 23.3691 13.8105C21.7167 14.0527 21.618 14.4037 21.4207 14.9857C20.8124 16.7804 19.2999 19.0959 19.748 20.6433C19.8369 21.1764 20.7549 21.8016 21.7872 22.0655C22.6735 22.3855 23.2307 22.2716 23.9449 21.7779C24.7748 20.8627 24.0873 17.7944 24.6473 15.9841C25.0484 15.1011 27.9989 14.5937 27.9989 14.5937L27.9708 14.3197C28.3685 14.2323 28.8595 14.1159 29.2495 14.0392C29.3371 14.0239 29.4451 14.0052 29.57 13.9835C29.5952 13.9797 29.6244 13.9747 29.6472 13.9719C29.6487 13.9716 29.6496 13.9696 29.6512 13.9693C34.5655 13.1155 73.7863 6.35413 78.2249 5.5832C78.3619 5.6752 78.5327 5.7168 78.7079 5.6856L81.0801 5.25867C81.5691 6.06413 82.2333 6.86493 82.6189 7.226C83.2161 7.78533 84.9812 8.37746 84.9812 8.37746C84.9812 8.37746 84.9812 8.37747 85.7529 7.74653C86.5249 7.11547 88.2892 6.3272 88.2892 6.3272C88.2892 6.3272 86.9657 8.06293 86.2128 9.27227C85.4601 10.4813 86.9337 16.3359 85.3551 18.4887C83.7764 20.6416 83.6852 22.786 82.8957 25.1357C82.1064 27.4857 79.072 31.8932 79.072 31.8932C80.1407 28.982 80.4049 26.7413 80.4049 26.7413C78.8523 28.7499 77.8939 30.1551 76.9204 32.0371C76.0324 33.7545 73.8721 38.3567 74.2335 40.3731C74.274 40.5995 74.3349 40.8245 74.4044 41.0476C74.1652 40.7743 73.9665 40.4933 73.842 40.2167C73.2989 39.0105 73.5028 37.6619 73.6832 35.8816C73.6832 35.8816 72.8739 37.8101 71.9599 39.7892C71.046 41.7684 69.144 43.0975 69.144 43.0975C69.144 43.0975 69.0335 42.708 69.7947 40.4244C70.5559 38.1408 73.4931 34.3832 73.4931 34.3832C74.1931 33.4147 74.1977 33.3328 74.4116 31.6112C74.5112 30.8101 74.3767 29.4167 74.3767 29.4167C74.3767 29.4167 73.7412 30.5113 73.0425 31.3665C73.2455 29.4656 73.1444 26.9293 73.1444 26.9293C73.1444 26.9293 72.5795 29.5899 71.5343 31.202C70.7764 32.3711 69.3956 33.7361 67.5497 33.45C67.3684 33.422 67.2016 33.4044 67.0469 33.3952C67.0263 33.3625 66.9987 33.336 66.9581 33.3203C66.6116 33.186 65.678 33.7041 65.6124 33.1453C65.5469 32.5865 65.8497 32.1212 65.7655 31.8401C65.6813 31.5591 64.5977 31.9183 64.5239 31.7701C64.4501 31.6221 64.3935 31.4044 64.6775 31.2171C64.9617 31.0297 66.4344 30.5985 66.796 30.1697C67.4264 29.4223 66.8867 29.2237 66.8867 29.2237C66.8867 29.2237 66.9017 29.5701 66.6125 29.778C66.3107 29.9949 65.5908 30.1228 65.1224 30.2633C64.6541 30.4037 64.3199 30.538 64.3417 30.1572C64.3639 29.7763 64.576 29.236 64.6235 29.1672C64.6708 29.0983 64.3856 29.0549 63.8923 29.3391C63.3989 29.6231 62.228 29.8041 62.1751 29.5137C62.1219 29.2235 62.0657 28.0151 62.0379 27.2405C62.0097 26.4663 62.0097 25.4453 61.4292 25.2111C60.8484 24.9769 59.5868 25.7636 59.5868 25.7636C59.4195 25.2539 59.4725 24.8417 59.6084 24.5201C61.5039 24.1095 64.2321 22.858 65.4352 21.0619C65.4352 21.0619 65.4332 21.0609 65.4331 21.0609C66.7369 21.0165 67.6951 20.7521 68.2549 20.5444C68.2501 20.546 68.246 20.548 68.2411 20.5496C67.7108 20.7129 69.9532 21.4875 70.1251 22.2429C70.2969 22.9984 70.2584 24.2313 70.6365 24.7675C70.6917 25.0863 72.2647 26.6236 72.3063 26.4267C72.3257 26.3349 72.2879 26.2423 72.2611 26.1525C72.1929 25.9235 72.1955 25.674 72.2681 25.4464C72.276 25.4216 72.2889 25.3987 72.2981 25.3745C72.3296 25.3321 72.3573 25.2519 72.4025 25.128C72.4388 25.0523 72.4759 24.9768 72.5051 24.8981C72.5152 24.8708 72.5223 24.8417 72.5303 24.8133C72.5516 24.7655 72.5717 24.7189 72.5983 24.6644C72.9072 24.0259 72.8704 23.5864 72.4639 23.4893C72.3519 23.4625 72.3407 23.3359 72.2489 23.3145C72.1261 23.286 72.0261 23.2909 71.94 23.3141C72.0589 23.0927 72.3707 22.6525 72.8683 22.9401C73.112 23.0808 73.1449 23.5113 73.1437 23.7927C73.1425 24.1112 73.0327 24.5325 72.9684 24.9013C72.8723 25.2936 72.7747 25.5899 72.7747 25.5899C72.9993 25.3636 73.4941 24.2759 73.5869 23.6815C73.6801 23.0871 73.5043 22.1349 72.9007 22.0687C72.8031 22.058 72.6976 22.0647 72.592 22.0935L72.5983 21.7855C72.5983 21.7855 72.5299 21.5423 72.3896 21.1521C71.7795 19.6988 71.0948 18.9427 65.7099 17.208C65.7099 17.208 68.0748 16.7279 70.0197 17.0267C69.3675 16.3244 68.5843 15.7456 67.6587 15.4784C65.3792 14.8203 62.4155 14.4443 59.6109 16.4964C58.2947 17.4596 57.6376 19.0313 57.364 19.8739C58.8612 18.8289 61.576 18.6829 63.8204 19.3435C65.9793 19.9789 68.582 20.2643 68.8092 20.2884C68.8052 20.2909 68.8019 20.2933 68.798 20.2956C68.4697 20.3415 65.7992 20.6937 63.9865 20.2909C62.0524 19.8609 59.3395 19.3323 57.2885 21.2408C54.7515 23.6017 55.5509 25.2212 55.9531 26.6664C56.2475 27.0397 57.7809 27.2365 58.5439 27.3124C58.5743 27.3821 58.6047 27.4524 58.6332 27.5251C59.2169 29.0176 59.4088 30.946 60.2549 31.6112C61.1011 32.2763 62.9684 35.0541 65.5407 35.8233C65.5407 35.8233 66.2256 36.1693 67.1712 36.2663C67.0821 36.2971 66.9957 36.3272 66.9251 36.3535C65.1945 36.9959 63.5112 40.0937 62.9583 41.9207C62.4053 43.7475 61.8148 45.8427 62.0392 47.0421C62.5703 49.8801 64.1201 51.0551 65.0336 51.4356C65.0973 51.4621 65.1784 51.4824 65.2689 51.4989C65.7321 52.2019 66.1997 52.9748 66.592 53.8295C67.9527 56.7941 68.8597 57.0635 69.7668 58.2731C70.674 59.4825 75.0585 66.8907 75.0585 66.8907C76.8727 64.4717 79.2917 50.224 79.2917 50.224C79.2917 50.224 79.2917 58.1217 78.5357 62.8087C77.7799 67.4955 76.268 71.7288 76.268 71.7288C82.0132 69.1585 85.9439 58.5753 85.9439 58.5753C85.9439 58.5753 85.1701 63.8075 82.1727 69.2733C79.4829 74.1783 76.0788 76.7599 76.0788 76.7599C76.0788 76.7599 77.4944 80.4016 80.6576 80.5599C83.8207 80.718 92.3597 79.7771 92.3597 79.7771C92.3597 79.7771 91.6013 80.1735 87.3313 81.5571C83.0612 82.9408 78.6315 81.0028 77.5243 81.6355C76.4173 82.268 75.5128 87.5187 75.3723 90.6817C75.2317 93.8449 76.6199 95.1101 76.6199 95.1101C76.6199 95.1101 76.6199 95.1101 79.3085 93.2123C81.9972 91.3143 88.6903 87.0721 88.6903 87.0721C88.6903 87.0721 83.9916 92.5569 80.6109 95.5941C78.4339 97.5501 77.2524 99.6965 77.2524 99.6965C77.2524 99.6965 76.7685 105.297 76.9268 108.608C77.0585 111.366 76.7887 112.566 77.5243 114.551C78.1789 114.891 78.994 115.182 79.9028 115.421L79.5259 120.033C79.5259 120.033 76.5535 122.041 75.4032 127.904C74.418 132.925 71.3087 135.57 70.586 138.42C70.5231 138.159 70.4009 138.083 70.1645 138.635C69.6196 139.906 69.8013 141.42 69.8617 144.024C69.9224 146.628 69.438 147.657 68.9056 149.656C68.3733 151.654 68.5296 153.047 68.9056 155.287C69.2816 157.528 70.4101 159.433 72.348 159.554C74.2857 159.675 75.5541 159.224 76.6441 158.194C77.7341 157.165 77.4919 155.348 77.5188 153.531C77.5456 151.715 76.6441 150.503 77.2496 148.384C77.8552 146.265 77.1803 145.124 77.1803 145.124C77.1803 145.124 75.0859 144.921 73.5049 144.01C72.334 143.335 71.8649 142.635 71.5624 141.874C72.9577 142.88 75.1657 142.992 75.1657 142.992C76.1485 140.497 80.3675 136.271 80.3675 136.271C77.3327 137.761 74.8092 138.951 74.8092 138.951C76.2353 136.433 79.7725 134.213 82.2957 131.416C84.8188 128.62 86.6781 125.089 89.5552 120.464C89.7637 120.129 90.0607 119.039 90.3124 117.674C89.9488 117.721 89.5272 117.756 89.0088 117.767C85.1584 117.849 83.3535 117.318 83.3535 117.318C86.5059 117.048 88.2904 116.779 90.6253 115.597C90.6256 115.594 90.626 115.593 90.6261 115.59C91.0092 115.488 91.3805 115.377 91.7221 115.245C92.2992 113.046 92.6691 109.563 92.8583 107.381C92.5585 107.795 91.7709 108.742 90.1457 109.936C89.8959 110.12 89.6313 110.308 89.3401 110.503C86.1993 112.6 83.3047 113.075 82.8705 113.137C82.8281 113.145 82.8084 113.146 82.8084 113.146C82.8084 113.146 82.8337 113.144 82.8705 113.137C83.1367 113.084 84.3943 112.656 88.5104 109.381C88.6097 109.302 88.7005 109.231 88.8033 109.149C92.6915 106.03 92.6915 100.747 92.6915 100.747C92.6915 100.747 93.2588 103.381 93.0615 106.524C93.1561 108.859 93.13 109.067 94.2385 112.669C94.4592 113.386 94.4208 114.524 94.6188 115.319C95.1859 115.398 95.9569 115.432 96.8436 115.425C96.9081 116.385 97.3697 117.543 97.2652 118.839C97.1671 120.053 96.3441 121.387 96.2453 122.79C96.0225 125.949 95.8381 129.454 95.8736 132.715C95.944 139.193 96.392 147.636 95.7685 152.959C94.2431 152.79 93.2188 153.791 92.7587 154.257C92.2128 154.811 89.8876 155.645 87.7047 156.91C86.0412 157.874 85.4225 158.975 85.5368 159.585H37.5916L58.1003 163.311L114.449 159.585H101.445Z" fill="white"/>
<path fill-rule="evenodd" clip-rule="evenodd" d="M66.2669 25.2981C66.2669 25.2981 65.6984 25.0741 65.3446 24.9046C64.9909 24.7353 64.5422 24.6689 64.5422 24.6689C64.9038 24.3125 65.8877 24.034 65.8877 24.034C65.8877 24.034 65.5466 23.7234 64.3512 24.0545C63.1558 24.3854 62.7765 25.0503 62.5972 25.4621C62.5972 25.4621 62.6132 25.692 63.2845 26.1769C63.9161 26.6333 64.5582 26.5818 64.5582 26.5818C64.404 26.4353 64.205 26.139 64.205 26.139C64.205 26.139 64.3738 26.0588 64.9626 25.9096C65.5516 25.7605 66.2669 25.2981 66.2669 25.2981Z" fill="white"/>
<path fill-rule="evenodd" clip-rule="evenodd" d="M0 193.603V192.96L2.19787 192.818V174.005L0 173.864V173.22H7.64226C8.46586 173.22 9.21147 173.259 9.87933 173.333C10.5517 173.41 11.2196 173.552 11.8727 173.757C12.5307 173.961 13.0813 174.229 13.5251 174.561C13.9684 174.897 14.3241 175.336 14.5973 175.881C14.8703 176.427 15.0067 177.071 15.0067 177.802C15.0067 178.382 14.8752 178.918 14.6216 179.41C14.3635 179.898 14.0368 180.307 13.6419 180.629C13.2424 180.95 12.784 181.238 12.2579 181.491C11.7363 181.745 11.2295 181.935 10.7419 182.071C10.2596 182.203 9.772 182.305 9.28453 182.369V182.427C10.2448 182.427 11.1319 182.539 11.9411 182.763C12.7499 182.988 13.4567 183.319 14.0611 183.758C14.6653 184.196 15.1431 184.766 15.4844 185.478C15.8253 186.19 15.9961 186.994 15.9961 187.9C15.9961 188.719 15.8499 189.455 15.5573 190.108C15.2599 190.761 14.8653 191.302 14.368 191.731C13.8759 192.16 13.2912 192.516 12.6184 192.804C11.9456 193.086 11.2487 193.291 10.5276 193.418C9.8012 193.539 9.046 193.603 8.2564 193.603H0ZM5.85347 192.672C6.37013 192.765 6.86213 192.813 7.33986 192.813C8.85586 192.813 10.0449 192.375 10.9077 191.497C11.7703 190.625 12.1992 189.431 12.1992 187.93C12.1992 186.321 11.7555 185.088 10.864 184.235C9.972 183.382 8.73866 182.958 7.16946 182.958C6.7208 182.958 6.2824 182.992 5.85347 183.061V192.672ZM5.85347 182.081C6.25293 182.14 6.62373 182.169 6.9548 182.169C9.84493 182.169 11.2925 180.741 11.2925 177.89C11.2925 176.671 10.966 175.721 10.3177 175.038C9.6696 174.351 8.68013 174.01 7.33986 174.01C6.86706 174.01 6.37013 174.059 5.85347 174.151V182.081ZM18.1357 193.603V192.96L20.3336 192.818V174.005L18.1357 173.864V173.22H26.1873V173.864L23.9891 174.005V192.657C25.5391 192.76 26.6015 192.813 27.1719 192.813C27.6983 192.813 28.1564 192.799 28.5509 192.77C28.946 192.74 29.3065 192.682 29.638 192.584C29.9645 192.492 30.2423 192.394 30.4616 192.287C30.6857 192.185 30.9004 192.019 31.1003 191.8C31.2999 191.575 31.4608 191.356 31.5825 191.142C31.7092 190.932 31.8701 190.513 32.0701 189.894C32.2697 189.275 32.4455 188.568 32.5963 187.784H33.0837V193.603H18.1357ZM34.1904 173.864V173.22H42.242V173.864L40.0295 174.005V187.34C40.0295 187.73 40.0389 188.076 40.0585 188.383C40.0781 188.685 40.122 189.051 40.1949 189.475C40.2633 189.899 40.3655 190.265 40.5019 190.581C40.6337 190.893 40.8239 191.215 41.0721 191.551C41.3209 191.883 41.6135 192.155 41.9543 192.37C42.3005 192.584 42.7295 192.76 43.2461 192.901C43.7673 193.037 44.3475 193.106 44.9957 193.106C45.7755 193.106 46.4679 192.984 47.0721 192.74C47.6765 192.502 48.1637 192.185 48.5391 191.795C48.9192 191.4 49.2261 190.927 49.4699 190.367C49.7137 189.801 49.8792 189.231 49.9768 188.651C50.0693 188.071 50.1181 187.442 50.1181 186.77V174.005L47.9347 173.864V173.22H53.2181V173.864L51.0347 174.005V187.087C51.0347 187.774 50.976 188.422 50.8687 189.036C50.7568 189.65 50.5569 190.279 50.2595 190.918C49.9669 191.551 49.5871 192.097 49.1192 192.55C48.6513 193.003 48.0273 193.374 47.2427 193.666C46.458 193.954 45.5563 194.1 44.5376 194.1C43.4801 194.1 42.5395 194.022 41.706 193.871C40.8723 193.72 40.1708 193.52 39.6053 193.271C39.04 193.023 38.5573 192.706 38.1529 192.316C37.7481 191.926 37.4313 191.536 37.2023 191.142C36.9733 190.752 36.7931 190.289 36.6664 189.753C36.5395 189.211 36.4567 188.724 36.4227 188.285C36.3887 187.852 36.3739 187.34 36.3739 186.76V174.005L34.1904 173.864ZM54.9581 193.603V192.96L57.156 192.818V174.005L54.9581 173.864V173.22H69.0339L69.1752 179.04H68.5759C68.4636 178.391 68.3419 177.841 68.21 177.388C68.0833 176.939 67.8981 176.481 67.6593 176.023C67.4204 175.57 67.1427 175.204 66.8259 174.931C66.5043 174.658 66.0949 174.439 65.5931 174.268C65.0956 174.098 64.5159 174.01 63.8579 174.01C63.0487 174.01 62.03 174.059 60.8115 174.151V182.637C61.0992 182.666 61.6207 182.681 62.3759 182.681C63.3801 182.681 64.0967 182.437 64.5253 181.945C64.9592 181.457 65.1735 180.565 65.1735 179.274H65.9585V186.935H65.1735C65.1735 185.644 64.9543 184.742 64.5208 184.235C64.0869 183.724 63.3703 183.47 62.3759 183.47C61.64 183.47 61.1184 183.485 60.8115 183.514V192.672C62.03 192.765 63.2388 192.813 64.4376 192.813C64.9981 192.813 65.4905 192.77 65.9196 192.677C66.3481 192.589 66.7185 192.438 67.0356 192.228C67.3475 192.019 67.6155 191.785 67.8347 191.522C68.0543 191.263 68.2444 190.927 68.4099 190.518C68.5759 190.108 68.7123 189.704 68.8192 189.294C68.9216 188.885 69.0339 188.383 69.1457 187.784H69.76L69.6043 193.603H54.9581ZM78.8452 193.603V192.96L81.0429 192.818V174.005L78.8452 173.864V173.22H86.4873C87.3109 173.22 88.0567 173.259 88.7245 173.333C89.3968 173.41 90.0647 173.552 90.7177 173.757C91.3759 173.961 91.9265 174.229 92.3703 174.561C92.8136 174.897 93.1692 175.336 93.4424 175.881C93.7153 176.427 93.8517 177.071 93.8517 177.802C93.8517 178.382 93.7203 178.918 93.4667 179.41C93.2085 179.898 92.882 180.307 92.4869 180.629C92.0875 180.95 91.6291 181.238 91.1029 181.491C90.5813 181.745 90.0745 181.935 89.5869 182.071C89.1047 182.203 88.6172 182.305 88.1296 182.369V182.427C89.09 182.427 89.9771 182.539 90.7863 182.763C91.5951 182.988 92.3017 183.319 92.9061 183.758C93.5105 184.196 93.9883 184.766 94.3295 185.478C94.6704 186.19 94.8412 186.994 94.8412 187.9C94.8412 188.719 94.6949 189.455 94.4024 190.108C94.1051 190.761 93.7104 191.302 93.2131 191.731C92.7209 192.16 92.1363 192.516 91.4635 192.804C90.7908 193.086 90.0937 193.291 89.3727 193.418C88.6463 193.539 87.8911 193.603 87.1016 193.603H78.8452ZM84.6985 192.672C85.2152 192.765 85.7073 192.813 86.1851 192.813C87.7009 192.813 88.89 192.375 89.7529 191.497C90.6153 190.625 91.0444 189.431 91.0444 187.93C91.0444 186.321 90.6007 185.088 89.7091 184.235C88.8171 183.382 87.5839 182.958 86.0145 182.958C85.5659 182.958 85.1275 182.992 84.6985 183.061V192.672ZM84.6985 182.081C85.098 182.14 85.4688 182.169 85.7999 182.169C88.6901 182.169 90.1376 180.741 90.1376 177.89C90.1376 176.671 89.8111 175.721 89.1629 175.038C88.5147 174.351 87.5252 174.01 86.1851 174.01C85.7121 174.01 85.2152 174.059 84.6985 174.151V182.081ZM96.9808 193.603V192.96L99.1787 192.818V174.005L96.9808 173.864V173.22H105.032V173.864L102.834 174.005V192.657C104.384 192.76 105.447 192.813 106.017 192.813C106.543 192.813 107.001 192.799 107.396 192.77C107.791 192.74 108.152 192.682 108.483 192.584C108.81 192.492 109.087 192.394 109.307 192.287C109.531 192.185 109.745 192.019 109.945 191.8C110.145 191.575 110.306 191.356 110.428 191.142C110.554 190.932 110.715 190.513 110.915 189.894C111.115 189.275 111.291 188.568 111.441 187.784H111.929V193.603H96.9808ZM113.957 183.475C113.957 181.516 114.307 179.727 115.014 178.109C115.716 176.486 116.754 175.185 118.119 174.2C119.483 173.215 121.058 172.723 122.837 172.723C125.522 172.723 127.686 173.669 129.329 175.565C130.971 177.461 131.79 179.946 131.79 183.017C131.79 184.143 131.678 185.234 131.454 186.287C131.229 187.345 130.884 188.349 130.406 189.294C129.928 190.24 129.353 191.068 128.671 191.78C127.989 192.487 127.155 193.052 126.166 193.471C125.176 193.891 124.094 194.1 122.924 194.1C120.137 194.1 117.943 193.13 116.349 191.186C114.756 189.245 113.957 186.672 113.957 183.475ZM117.782 183.163C117.782 185.035 117.968 186.726 118.338 188.237C118.713 189.743 119.283 190.966 120.059 191.907C120.838 192.843 121.764 193.31 122.837 193.31C124.435 193.31 125.693 192.384 126.599 190.528C127.511 188.671 127.964 186.209 127.964 183.134C127.964 179.937 127.521 177.534 126.629 175.925C125.737 174.317 124.503 173.513 122.924 173.513C122.374 173.513 121.847 173.625 121.345 173.854C120.848 174.083 120.375 174.449 119.941 174.955C119.503 175.457 119.128 176.081 118.811 176.817C118.499 177.553 118.246 178.465 118.06 179.551C117.875 180.633 117.782 181.837 117.782 183.163ZM134.534 183.475C134.534 181.516 134.885 179.727 135.592 178.109C136.294 176.486 137.332 175.185 138.696 174.2C140.061 173.215 141.635 172.723 143.414 172.723C146.1 172.723 148.264 173.669 149.906 175.565C151.549 177.461 152.368 179.946 152.368 183.017C152.368 184.143 152.256 185.234 152.031 186.287C151.807 187.345 151.461 188.349 150.983 189.294C150.506 190.24 149.931 191.068 149.248 191.78C148.566 192.487 147.733 193.052 146.743 193.471C145.754 193.891 144.672 194.1 143.502 194.1C140.714 194.1 138.521 193.13 136.927 191.186C135.333 189.245 134.534 186.672 134.534 183.475ZM138.36 183.163C138.36 185.035 138.545 186.726 138.916 188.237C139.291 189.743 139.861 190.966 140.636 191.907C141.416 192.843 142.342 193.31 143.414 193.31C145.013 193.31 146.27 192.384 147.177 190.528C148.088 188.671 148.542 186.209 148.542 183.134C148.542 179.937 148.098 177.534 147.206 175.925C146.314 174.317 145.081 173.513 143.502 173.513C142.951 173.513 142.425 173.625 141.923 173.854C141.426 174.083 140.953 174.449 140.519 174.955C140.081 175.457 139.705 176.081 139.388 176.817C139.077 177.553 138.823 178.465 138.638 179.551C138.453 180.633 138.36 181.837 138.36 183.163ZM154.585 193.603V192.96L156.783 192.818V174.005L154.585 173.864V173.22H161.784C163.714 173.22 165.371 173.464 166.751 173.946C168.135 174.434 169.227 175.141 170.03 176.062C170.835 176.988 171.42 178.06 171.79 179.279C172.156 180.497 172.336 181.906 172.336 183.504C172.336 184.655 172.219 185.732 171.98 186.726C171.741 187.72 171.366 188.646 170.845 189.494C170.328 190.347 169.68 191.078 168.905 191.683C168.125 192.287 167.175 192.76 166.044 193.096C164.918 193.433 163.655 193.603 162.252 193.603H154.585ZM160.439 192.672C160.955 192.765 161.418 192.813 161.838 192.813C162.812 192.813 163.675 192.657 164.43 192.341C165.191 192.029 165.825 191.595 166.331 191.034C166.843 190.479 167.262 189.797 167.599 188.992C167.93 188.188 168.169 187.316 168.32 186.375C168.466 185.429 168.539 184.401 168.539 183.275C168.539 182.174 168.485 181.189 168.383 180.322C168.276 179.454 168.081 178.611 167.788 177.792C167.501 176.973 167.116 176.301 166.638 175.764C166.161 175.233 165.532 174.809 164.752 174.488C163.972 174.171 163.056 174.01 162.008 174.01C161.477 174.01 160.955 174.059 160.439 174.151V192.672Z" fill="white"/>
<path fill-rule="evenodd" clip-rule="evenodd" d="M50.4521 207.064H54.3406V206.545H50.4521V207.064ZM118.432 207.064H122.32V206.545H118.432V207.064ZM61.4044 210.26C62.9056 210.26 63.8883 209.44 63.8883 208.187C63.8883 206.88 62.722 206.459 61.3828 206.016C60.3027 205.66 59.5359 205.379 59.5359 204.471C59.5359 203.629 60.1946 203.013 61.2423 203.013C62.3224 203.013 62.9056 203.64 63.1864 204.32L63.6726 204.05C63.3051 203.175 62.4843 202.463 61.2423 202.463C59.9568 202.463 58.9527 203.251 58.9527 204.493C58.9527 205.811 60.0866 206.167 61.3504 206.578C62.5062 206.945 63.3051 207.291 63.3051 208.198C63.3051 209.062 62.6679 209.71 61.4044 209.71C60.1622 209.71 59.3952 209.094 59.1363 208.187L58.6394 208.478C58.9848 209.548 59.9894 210.26 61.4044 210.26ZM65.2384 202.581V210.142H65.811V202.581H65.2384ZM72.6587 202.581V209.083L68.1872 202.581H67.6902V210.142H68.2628V203.64L72.7233 210.142H73.231V202.581H72.6587ZM78.6096 210.26C80.0247 210.26 81.256 209.526 81.8713 208.414L81.3638 208.122C80.8671 209.073 79.8084 209.71 78.6096 209.71C76.6223 209.71 75.2507 208.219 75.2507 206.361C75.2507 204.504 76.6223 203.013 78.6096 203.013C79.7979 203.013 80.8456 203.64 81.3422 204.569L81.8498 204.277C81.2235 203.175 80.0031 202.463 78.6096 202.463C76.309 202.463 74.6782 204.201 74.6782 206.361C74.6782 208.521 76.309 210.26 78.6096 210.26ZM83.794 209.602V206.599H87.25V206.059H83.794V203.121H87.5202V202.581H83.2214V210.142H87.5743V209.602H83.794ZM91.3871 210.142H96.1394V209.591H92.2079L94.5516 207.182C95.3186 206.405 95.9663 205.573 95.9663 204.633C95.9663 203.229 94.8755 202.463 93.7198 202.463C92.7371 202.463 91.8836 202.938 91.4302 203.867L91.9161 204.158C92.2725 203.402 92.8992 203.013 93.7198 203.013C94.6378 203.013 95.3831 203.596 95.3831 204.633C95.3831 205.379 94.8215 206.092 94.1627 206.772L91.3871 209.623V210.142ZM99.9087 210.26C101.723 210.26 102.738 208.695 102.738 206.361C102.738 204.028 101.723 202.463 99.9087 202.463C98.0942 202.463 97.0789 204.028 97.0789 206.361C97.0789 208.695 98.0942 210.26 99.9087 210.26ZM99.9087 209.71C98.5047 209.71 97.6622 208.478 97.6622 206.361C97.6622 204.245 98.5047 203.013 99.9087 203.013C101.313 203.013 102.155 204.245 102.155 206.361C102.155 208.478 101.313 209.71 99.9087 209.71ZM103.667 210.142H108.42V209.591H104.488L106.832 207.182C107.599 206.405 108.247 205.573 108.247 204.633C108.247 203.229 107.156 202.463 106 202.463C105.017 202.463 104.164 202.938 103.711 203.867L104.197 204.158C104.553 203.402 105.18 203.013 106 203.013C106.918 203.013 107.664 203.596 107.664 204.633C107.664 205.379 107.102 206.092 106.443 206.772L103.667 209.623V210.142ZM111.93 205.724L113.744 203.121V202.581H109.392V203.121H113.086L111.174 205.832L111.422 206.21H111.584C112.707 206.21 113.528 206.869 113.528 207.96C113.528 209.051 112.707 209.71 111.606 209.71C110.655 209.71 109.953 209.299 109.672 208.543L109.197 208.824C109.565 209.753 110.504 210.26 111.606 210.26C112.945 210.26 114.101 209.418 114.101 207.96C114.101 206.631 113.129 205.843 111.93 205.724Z" fill="white"/>
</svg>
