<svg width="794" height="1123" viewBox="0 0 794 1123" fill="none" xmlns="http://www.w3.org/2000/svg">
<path fill-rule="evenodd" clip-rule="evenodd" d="M593.404 719.976H598.84C600.643 718.221 601.699 717.686 603.049 715.179C604.672 712.166 608.259 698.798 609.356 694.997L629.011 626.859C629.69 624.513 631.352 614.335 635.176 615.974C637.785 618.602 637.079 622.24 637.078 626.892L637.078 716.103L662.557 716.116L662.561 619.392C662.355 592.933 638.264 593.035 626.999 602.809C621.798 607.322 620.036 616.873 617.647 625.203C612.93 641.651 608.811 658.39 603.637 674.703C602.423 673.053 596.953 654.332 595.712 650.501C592.301 639.969 584.17 610.459 578.475 603.332C571.9 595.106 551.731 593.713 545.416 605.933C543.059 610.493 543.132 613.787 542.973 619.393C542.672 630.023 542.894 640.933 542.894 651.597C542.894 673.158 542.894 694.719 542.893 716.153L554.366 715.98C554.366 698.931 554.366 681.881 554.366 664.832C554.366 655.786 553.266 621.158 555.689 615.533C557.64 615.64 557.462 615.819 558.224 617.843L586.333 709.299C588.961 718.026 590.242 716.823 593.404 719.976Z" fill="black"/>
<path fill-rule="evenodd" clip-rule="evenodd" d="M415.747 582.098C416.824 579.54 419.663 578.778 421.951 575.895C421.797 577.839 420.651 578.277 419.478 579.267C417.867 580.627 417.839 581.022 415.747 582.098ZM391.083 587.521C393.296 586.624 394.8 588.987 398.534 586.982C401.327 585.482 401.31 584.862 403.32 582.946C405.238 581.117 405.971 581.099 407.772 578.57C408.278 577.86 408.879 576.95 409.544 575.939C409.857 575.464 409.937 575.198 410.411 574.615C410.791 574.149 410.779 574.213 411.118 573.895L411.703 573.459C412.72 574.732 412.737 574.162 413.358 575.882L403.119 585.821C401.345 587.759 401.132 589.516 397.238 590.037C394.592 590.39 391.033 589.27 391.083 587.521ZM389.923 578.529C387.203 576.554 386.726 572.257 386.924 569.156C387.098 566.443 387.199 559.951 388.872 558.714C391.286 556.929 391.391 558.817 391.228 561.136C391.09 563.089 390.906 564.915 390.768 566.893C390.503 570.707 390.196 574.63 389.923 578.529ZM365.853 564.442C360.063 564.713 354.346 559.581 360.366 555.744C364.074 556.713 364.172 560.901 365.853 564.442ZM423.451 548.45C424.848 548.604 424.071 547.496 425.916 551.176C426.544 552.426 427.206 553.458 427.309 554.77L422.542 554.981L423.451 548.45ZM415.308 550.793C415.749 551.669 416.083 552.19 416.539 553.071C417.384 554.701 418.2 556.275 418.846 557.879C417.266 558.016 417.736 557.956 416.692 556.458C415.512 554.765 412.03 550.845 413.745 548.423C414.783 549.242 414.647 549.479 415.308 550.793ZM367.426 550.573C369.298 549.802 370.753 551.252 372.795 551.318C375.151 551.394 376.172 548.243 376.192 548.131C376.225 547.947 376.324 547.911 376.411 547.817C378.536 551.761 381.729 548.547 387.35 549.631C391.949 550.518 395.005 548.7 399.241 547.9C396.915 552.589 390.014 553.751 383.528 553.017C369.704 551.451 374.668 555.288 370.567 552.741C369.322 551.968 368.218 551.434 367.426 550.573ZM399.961 530.279H396.208L393.352 531.483C392.154 531.744 391.147 531.85 389.922 531.837C387.638 531.813 385.091 531.271 383.666 530.279H378.616C379.157 530.866 380.518 532.267 380.895 532.725C382.337 534.478 381.862 534.887 380.712 535.959C379.038 535.386 379.56 534.113 378.453 532.498C376.012 533.472 373.885 535.022 371.654 536.255L370.228 537.093C370.147 537.153 370.037 537.251 369.966 537.308L369.464 537.779C373.241 540.782 376.678 537.371 377.596 543.847C379.291 544.093 380.454 544.138 381.704 544.838C380.71 549.029 378.979 546.683 375.365 546.52C374.691 546.675 376.39 547.372 370.431 547.898C369.568 541.368 364.378 545.28 359.957 541.271C356.468 538.108 355.971 541.053 353.799 541.105C351.648 541.156 349.452 538.596 347.708 539.652C348.134 541.034 348.789 541.148 349.929 542.043L355.5 547.053C356.679 548.245 357.428 548.514 358.186 549.799C348.341 554.25 345.503 546.974 341.672 545.086C340.464 549.257 334.248 557.552 343.336 559.644C346.527 560.379 347.726 558.829 350.578 559.478L351.301 563.101L342.866 561.248C344.518 563.286 346.058 564.69 347.835 566.637C349.002 567.917 352.607 570.999 352.809 572.574C350.994 572.398 345.783 567.093 344.471 565.581C342.144 562.899 339.092 560.689 336.596 558.236C336.676 561.513 338.944 564.472 340.191 567.226C342.795 572.973 340.836 573.826 341.784 578.335C342.375 581.139 347.665 582.046 350.113 582.883C353.443 584.02 356.656 585.076 359.843 586.115C364.223 580.541 358.686 580.468 369.988 579.139L369.768 584.612L374.062 586.595L374.924 584.652C376.707 585.183 378.731 588.054 379.664 589.451L380.298 588.621C381.11 587.757 382.607 587.157 384.182 587.072C386.924 586.923 387.967 587.297 389.081 588.953C388.575 589.41 389.485 589.006 387.941 589.611C387.578 589.753 386.992 589.871 386.57 590.001C383.177 591.051 382.326 593.553 382.614 597.144C383.803 596.007 385.618 593.857 386.807 592.87L386.852 610.13C388.305 607.797 389.537 601.052 391.796 599.901L390.312 648.616C389.29 648.064 388.147 647.238 387.495 646.522C391.982 653.932 390.117 657.371 390.028 666.58C389.961 673.59 389.771 682.374 388.598 688.985C384.291 687.225 383.167 685.153 377.753 687.976C374.989 689.418 370.831 686.447 367.633 685.352C360.388 682.871 349.01 680.896 345.557 687.746C351.698 688.557 355.694 686.483 362.717 688.498C370.381 690.697 374.787 694.768 381.36 698.11C383.187 699.039 386.229 700.441 387.597 701.609C391.342 704.807 389.249 713.618 389.673 718.903L394.308 718.999C395.49 715.688 396.862 707.196 399.283 705.51C401.326 704.088 408.35 704.774 414.012 701.285C427.694 692.854 423.491 704.314 444.214 697.562C443.594 696.951 444.54 697.723 443.465 696.889L436.866 692.882C434.353 691.364 432.031 689.661 429.653 688.19C420.465 682.506 418.68 688.664 411.79 690.417C412.257 688.915 415.467 686.413 418.169 679.839C420.755 673.548 422.024 674.628 422.022 666.597C422.021 661.834 421.694 635.966 420.668 633.701C418.329 633.265 417.992 635.104 416.859 636.627L398.205 661.648C397.135 663.074 396.136 664.817 394.667 665.933C394.692 654.903 396.218 609.636 398.556 598.932C399.006 596.872 399.001 595.937 400.379 594.99C405.104 591.742 409.318 595.59 411.676 599.405C412.897 598.81 414.334 597.494 415.77 598.8C417.43 600.309 420.096 608.944 421.578 611.316C423.862 606.921 420.989 603.199 420.032 599.651L452.389 593.096C447.956 592.454 434.677 594.129 429.835 594.93C422.439 596.155 414.486 599.855 411.955 592.015C415.773 590.213 432.334 578.976 434.013 575.772C427.262 573.038 428.185 579.216 422.736 580.211C426.141 566.524 432.544 582.517 447.11 556.085C442.963 559.651 439.02 555.93 433.802 553.386C433.729 553.351 433.586 553.286 433.489 553.22L436.011 548.684C428.884 546.162 430.986 544.29 432.965 538.825C429.504 540.626 427.326 545.752 423.12 546.214C426.364 539.905 425.629 543.324 422.152 539.503C420.91 538.138 421.801 537.311 420.363 535.49C418.787 536.341 419.08 537.747 417.716 539.239L418.076 536.537C414.2 539.689 413.926 540.46 409.775 536.592L406.537 537.979C405.057 534.362 402.931 532.265 399.961 530.279Z" fill="black"/>
<path fill-rule="evenodd" clip-rule="evenodd" d="M281.178 609.908C301.201 609.908 316.232 608.916 319.245 629.202C320.555 638.016 318.893 646.794 313.991 651.544C308.602 656.764 301.212 657.203 292.426 658.571C293.421 661.899 295.653 665.625 297.168 668.902C298.734 672.29 300.236 675.318 301.949 678.675C305.172 684.993 308.47 691.832 311.496 698.237C313.098 701.629 314.566 704.524 316.027 708.288C317.478 712.025 318.658 715.463 322.53 716.357C325.844 717.122 333.11 716.335 336.984 716.338C341.874 716.342 346.764 716.338 351.844 716.236L321.655 659.979C322.973 659.251 328.439 658.185 330.452 657.417C351.97 649.212 352.215 619.431 335.209 607.929C325.053 601.06 312.783 600.09 298.604 600.09C292.303 600.09 257.406 599.374 254.378 600.587L254.378 716.116H280.955L281.178 609.908Z" fill="black"/>
<path fill-rule="evenodd" clip-rule="evenodd" d="M159.724 670.457C159.903 667.659 162.752 659.404 163.695 656.097L172.009 627.37C173.1 623.754 174.685 615.129 178.598 615.319C182.844 615.526 184.136 622.904 185.356 627.198L193.608 656.009C194.483 659.106 197.37 667.724 197.386 670.451L159.724 670.457ZM156.689 681.163L199.785 681.155C201.287 681.534 204.083 692.74 204.696 694.768C211.966 718.807 209.514 716.351 220.078 716.339C225.899 716.332 232.248 716.583 238.002 716.284C237.962 712.951 219.767 655.065 218.312 650.273C215.062 639.566 211.636 628.349 208.258 617.542C201.185 594.912 181.431 592.287 170.407 602.802C166.441 606.585 164.847 609.949 162.978 616.547C159.78 627.835 156.613 638.626 153.43 649.795C150.289 660.819 147.098 671.82 143.877 683.05C142.254 688.71 140.718 694.276 139.099 699.864C138.11 703.28 134.815 713.466 134.712 716.235L146.235 716.185L156.689 681.163Z" fill="black"/>
<path fill-rule="evenodd" clip-rule="evenodd" d="M718.419 627.171C719.541 623.331 720.329 615.172 724.769 615.05C729.448 614.922 730.317 622.856 731.6 627.12C733.056 631.961 734.351 636.699 735.724 641.514C737.206 646.713 743.624 666.674 743.647 670.566L705.928 670.429L718.419 627.171ZM784.316 716.339V714.267C783.227 712.543 756.222 623.015 754.197 616.435C751.111 606.404 743.619 597.058 731.376 596.992C718.171 596.921 712.162 606.253 709.068 617.366C705.995 628.403 702.721 639.221 699.585 650.252C697.683 656.939 681.81 711.176 680.835 716.256C683.263 716.451 685.723 716.306 688.16 716.366C690.963 716.435 692.229 716.744 693.137 714.379L703.007 681.046L737.112 681.154C748.372 681.298 745.952 677.899 752.418 699.384C754.067 704.866 755.612 711.722 758.231 716.008C764.64 717.047 777.18 716.339 784.316 716.339Z" fill="black"/>
<path fill-rule="evenodd" clip-rule="evenodd" d="M463.818 622.04C463.818 613.224 472.816 608.977 481.207 607.877C490.041 606.719 500.743 608.94 509.586 609.687V599.872C501.442 599.407 493.712 597.776 485.212 597.776C461.19 597.776 439.882 607.811 439.882 631.745C439.882 644.762 446.518 651.431 454.565 656.668C469.673 666.5 498.265 676.865 494.053 693.951C489.469 712.547 457.279 706.645 442.861 704.757V714.351C457.346 715.947 460.051 717.109 475.507 717.109C498.648 717.109 520.064 705.893 520.064 682.919V680.713C520.064 657.304 493.4 651.995 471.943 635.337C467.99 632.267 463.818 627.888 463.818 622.04Z" fill="black"/>
<path fill-rule="evenodd" clip-rule="evenodd" d="M27.2931 651.044V663.4C29.4522 668.145 27.6514 683.755 42.4206 701.314C45.941 705.5 51.216 709.792 57.2448 712.978C67.0896 718.181 74.7448 718.929 76.6458 719.976H92.4207C95.067 718.493 105.097 718.093 116.194 709.612C121.729 705.381 128.241 698.141 131.849 690.86C131.46 690.38 131.733 690.591 130.959 689.98L122.914 685.097C122.071 686.674 120.591 688.296 119.401 689.879C115.49 695.083 112.1 699.748 106.805 703.762C99.6848 709.16 88.9398 711.589 78.8167 707.718C61.7251 701.182 55.7732 678.098 55.3215 661.213C54.7427 639.586 59.4892 618.526 74.3778 610.445C86.7362 603.738 103.038 605.86 113.163 617.349C116.883 621.57 117.73 624.213 120.377 627.789C122.034 627.459 128.637 624.104 129.864 622.922C126.221 612.537 116.639 604.962 106.678 600.882C82.8536 591.123 55.6142 599.772 40.6572 618.643C27.1914 635.633 29.2302 646.202 27.2931 651.044Z" fill="black"/>
<path fill-rule="evenodd" clip-rule="evenodd" d="M355.511 588.455L349.982 590.907C353.097 592.291 371.94 593.806 376.247 593.806C378.243 593.806 382.969 592.652 382.232 590.027C379.222 591.055 377.187 591.931 373.6 591.931C368.923 591.931 342.836 583.554 336.086 581.025C332.11 579.535 328.534 577.289 324.575 576.02C325.415 577.508 324.633 576.447 325.925 577.537C326.554 578.068 326.948 578.313 327.443 578.641C336.502 584.658 351.28 585.078 355.511 588.455Z" fill="black"/>
<path fill-rule="evenodd" clip-rule="evenodd" d="M384.131 642.224C385.048 641.221 384.783 641.159 384.747 637.927L384.739 602.105C380.985 602.293 381.729 607.527 382.029 610.587C382.381 614.178 382.446 617.87 382.62 621.589C382.813 625.735 383.146 639.326 384.131 642.224Z" fill="black"/>
<path fill-rule="evenodd" clip-rule="evenodd" d="M367.408 611.452C372.832 615.81 381.809 607.717 381.35 601.938L367.408 611.452Z" fill="black"/>
</svg>
