<svg width="173" height="210" viewBox="0 0 173 210" fill="none" xmlns="http://www.w3.org/2000/svg">
<path fill-rule="evenodd" clip-rule="evenodd" d="M100.622 159.585C100.764 159.037 100.944 158.328 100.864 157.556C99.4276 158.801 97.4678 158.724 97.0086 158.685C96.925 158.697 96.9024 158.675 96.9024 158.675C96.9024 158.675 96.945 158.68 97.0086 158.685C97.1763 158.662 97.5934 158.504 98.596 157.754C99.7794 156.869 100.01 155.889 99.9999 154.873C99.9972 154.598 99.9779 154.321 99.9539 154.042C99.8943 154.011 99.8279 153.983 99.7571 153.958C98.9779 153.68 97.5531 153.723 96.2311 153.315C97.8491 152.471 100.179 150.769 100.889 147.749C101.47 144.741 102.167 141.426 102.791 139.24C104.195 134.327 104.467 131.301 104.467 131.301C104.467 131.301 101.583 136.239 99.9475 137.697C99.9475 137.697 102.225 131.803 103.713 127.355C104.594 124.721 104.162 122.124 104.203 120.033C104.255 117.33 105.004 116.145 105.004 116.145C105.004 116.145 102.284 116.076 101.507 116.037C100.681 115.997 98.8662 115.649 97.5478 115.378C100.839 115.204 105.026 114.571 107.446 113.504C107.939 109.43 107.571 107.911 107.571 107.911C105.703 111.096 97.5562 112.114 97.5562 112.114C97.5562 112.114 97.9682 110.222 101.403 105.778C106.472 99.2212 105.697 89.6203 105.697 89.6203C103.24 94.8537 99.7974 96.5931 99.7974 96.5931C104.531 90.6196 104.081 84.1267 104.081 84.1267C104.081 84.1267 103.108 85.6119 99.6587 88.8039C96.2098 91.9957 94.5903 93.3709 94.5903 93.3709C94.5903 93.3709 97.6608 90.4043 99.6587 84.7107C101.908 78.2996 101.047 75.5635 101.047 75.5635C101.047 75.5635 100.106 76.2971 96.6531 76.7599C87.5398 77.9819 83.717 76.9976 79.418 76.764C84.5771 76.6295 92.8705 76.068 95.9781 74.4501C100.334 72.1823 102.357 70.6704 102.659 69.3097C102.961 67.9491 100.391 64.608 100.391 64.608C99.0304 68.0704 97.972 67.8339 97.972 67.8339C99.6351 62.2761 97.0651 54.8101 97.0651 54.8101C97.3674 62.5352 86.6392 73.4169 86.6392 73.4169C88.0368 70.7708 89.5727 65.5663 90.829 60.1831C89.2626 61.5357 87.893 62.0813 87.893 62.0813C87.893 62.0813 94.7527 51.6459 91.1708 41.2273C91.1532 41.1761 91.1393 41.1251 91.1212 41.0739C91.1212 41.0739 92.2146 41.5705 93.305 42.8595C93.5694 42.7695 94.6011 42.4125 94.9783 42.1861C95.4124 41.9256 95.4124 40.9705 95.5863 39.1469C95.7599 37.3233 94.903 34.9259 94.3328 33.6319C93.4684 31.6703 91.6512 32.0028 91.6512 32.0028C92.3459 33.4231 91.8523 36.7124 91.8523 36.7124C91.5919 35.5803 89.2472 32.6343 88.5526 31.9396C87.8579 31.2449 86.5555 31.3317 86.5555 31.3317C86.5555 31.3317 85.8608 32.6343 84.9056 33.85C83.9506 35.0657 82.2137 37.5839 81.5191 38.1049C81.5191 38.1049 80.7951 41.0748 78.4877 42.4124C78.1817 42.5896 77.8571 42.8035 77.5239 43.0281C78.2713 41.9232 79.1314 40.5557 79.654 39.4061C80.7304 37.0377 86.3998 29.2872 87.548 27.7741C88.6963 26.2609 89.0551 25.5555 90.2031 22.4148C91.3513 19.2741 89.1502 8.24027 89.2202 6.84853C89.2404 6.4488 89.2255 6.1112 89.1832 5.80267C89.7704 6.4684 90.3939 7.22587 91.1464 7.52947C91.939 7.8488 92.5466 7.938 92.6895 8.138C92.8327 8.33786 93.7738 9.68453 93.7738 9.68453C93.7738 9.68453 97.9309 20.9984 97.7571 23.504C97.5834 26.0096 98.1044 28 98.1044 28C100.275 28.7493 101.23 31.1581 101.23 31.1581C101.23 31.1581 100.188 30.3765 98.6255 29.6713C97.0623 28.9664 96.3676 29.5084 95.673 29.8556C95.673 29.8556 96.3554 30.9072 96.3976 33.9477C96.4387 36.9155 95.5863 39.1469 95.5863 39.1469C95.5863 39.1469 102.359 36.1945 104.357 34.5447C106.354 32.8948 106.788 31.5923 106.354 29.6713C105.92 27.7507 105.643 25.6875 105.643 25.6875C104.905 26.9445 103.982 27.4135 103.982 27.4135C104.92 24.7661 104.009 21.7473 104.009 21.7473C103.836 23.712 101.838 25.8811 101.838 25.8811C101.838 25.8811 102.533 20.8248 101.838 17.6988C101.144 14.5727 97.6613 6.69453 97.6613 6.69453L95.2536 8.5464C95.8924 7.71187 96.3388 6.91707 96.8596 6.36427C97.5583 5.62293 97.4952 5.2248 97.1599 4.98133C96.8246 4.73773 96.2208 5.1672 95.7001 5.73187C95.7001 5.73187 95.5086 5.09467 95.8874 4.4412C96.1846 3.928 95.943 2.88333 95.8252 2.4568L98.246 2.02107C98.6046 1.95733 98.8434 1.6148 98.7796 1.25613C98.7158 0.897734 98.3737 0.658799 98.0152 0.722399L93.7625 1.48333C93.7664 1.45533 93.7691 1.42613 93.7731 1.40053C93.83 1.05773 94.169 0.855733 94.169 0.855733C94.169 0.855733 93.9361 -0.146 93.4564 0.338C92.9767 0.822133 92.6692 1.67893 92.6692 1.67893C92.6692 1.67893 91.9274 0.988533 91.8448 0C91.8448 0 90.88 0.778666 91.2664 1.92987C91.2664 1.92987 90.5195 1.3964 90.3251 0.240799C90.3251 0.240799 88.7586 0.739867 89.0834 2.32053C89.0832 2.3204 88.5808 1.74133 88.3605 0.885999C88.3605 0.885999 88.1383 0.719732 88.0272 2.12573C88.0179 2.25373 88.0179 2.3824 88.0192 2.51093L87.7988 2.5504C87.3188 1.53893 86.781 0.546266 86.21 1.1496C85.401 2.0044 85.2522 2.89987 85.2522 2.89987C84.6956 1.68027 84.7848 0.866933 84.7848 0.866933C84.1175 1.6992 83.8744 3.25253 83.8744 3.25253L83.8718 3.25307L83.8638 3.25467C83.81 3.25973 83.5698 3.2344 83.1603 2.50373C82.8468 1.94413 83.155 1.1252 83.155 1.1252C83.155 1.1252 82.8117 1.2524 82.2637 1.9204C81.7158 2.58853 81.5524 3.668 81.5524 3.66813C80.803 2.65427 80.9542 1.91 80.9542 1.91C80.9542 1.91 80.2713 1.7276 79.8201 2.0896C79.3688 2.452 79.4475 2.948 79.687 4C79.6871 4.00067 79.6874 4.00107 79.6874 4.00173L77.651 4.36613C77.4794 4.39653 77.3368 4.49187 77.24 4.6208C72.8384 5.3836 33.6452 12.1284 28.6639 12.9915C28.6586 12.992 28.6546 12.9873 28.6498 12.9884C28.3576 13.0571 27.5786 13.1568 27.0431 13.228C27.0338 13.2291 24.2228 13.5647 22.545 13.8105C20.8926 14.0527 20.7938 14.4037 20.5964 14.9857C19.9883 16.7804 18.4758 19.0959 18.9239 20.6433C19.0128 21.1764 19.9308 21.8016 20.9631 22.0655C21.8494 22.3855 22.4066 22.2716 23.1208 21.7779C23.9507 20.8627 23.2632 17.7944 23.8232 15.9841C24.2243 15.1011 27.1748 14.5937 27.1748 14.5937L27.1486 14.3197C27.5463 14.2323 28.0371 14.1159 28.4272 14.0392C28.5147 14.0239 28.6227 14.0052 28.7478 13.9835C28.773 13.9797 28.8021 13.9747 28.8249 13.9719C28.8263 13.9716 28.8276 13.9696 28.829 13.9693C33.7434 13.1155 72.9642 6.35413 77.4028 5.5832C77.5398 5.6752 77.7106 5.7168 77.8858 5.6856L80.258 5.25867C80.7469 6.06413 81.4112 6.86493 81.7968 7.226C82.394 7.78533 84.159 8.37746 84.159 8.37746C84.159 8.37746 84.159 8.37747 84.9308 7.74653C85.7028 7.11547 87.4671 6.3272 87.4671 6.3272C87.4671 6.3272 86.1436 8.06293 85.3907 9.27227C84.638 10.4813 86.1116 16.3359 84.533 18.4887C82.9543 20.6416 82.8631 22.786 82.0736 25.1357C81.2843 27.4857 78.2499 31.8932 78.2499 31.8932C79.3186 28.982 79.5828 26.7413 79.5828 26.7413C78.0302 28.7499 77.0716 30.1551 76.0983 32.0371C75.2102 33.7545 73.05 38.3567 73.4114 40.3731C73.4519 40.5995 73.5128 40.8245 73.5823 41.0476C73.3431 40.7743 73.1444 40.4933 73.0199 40.2167C72.4768 39.0105 72.6807 37.6619 72.8611 35.8816C72.8611 35.8816 72.0518 37.8101 71.1378 39.7892C70.2239 41.7684 68.3219 43.0975 68.3219 43.0975C68.3219 43.0975 68.2114 42.708 68.9726 40.4244C69.7338 38.1408 72.671 34.3832 72.671 34.3832C73.371 33.4147 73.3756 33.3328 73.5895 31.6112C73.6891 30.8101 73.5546 29.4167 73.5546 29.4167C73.5546 29.4167 72.9189 30.5113 72.2204 31.3665C72.4233 29.4656 72.3223 26.9293 72.3223 26.9293C72.3223 26.9293 71.7574 29.5899 70.7122 31.202C69.9543 32.3711 68.5735 33.7361 66.7276 33.45C66.5463 33.422 66.3795 33.4044 66.2248 33.3952C66.2042 33.3625 66.1766 33.336 66.136 33.3203C65.7895 33.186 64.8559 33.7041 64.7902 33.1453C64.7247 32.5865 65.0276 32.1212 64.9434 31.8401C64.8592 31.5591 63.7756 31.9183 63.7018 31.7701C63.628 31.6221 63.5714 31.4044 63.8554 31.2171C64.1396 31.0297 65.6123 30.5985 65.9739 30.1697C66.6043 29.4223 66.0646 29.2237 66.0646 29.2237C66.0646 29.2237 66.0796 29.5701 65.7904 29.778C65.4886 29.9949 64.7687 30.1228 64.3003 30.2633C63.832 30.4037 63.4978 30.538 63.5196 30.1572C63.5418 29.7763 63.7539 29.236 63.8013 29.1672C63.8487 29.0983 63.5635 29.0549 63.0701 29.3391C62.5768 29.6231 61.4059 29.8041 61.3528 29.5137C61.2998 29.2235 61.2436 28.0151 61.2158 27.2405C61.1876 26.4663 61.1876 25.4453 60.6071 25.2111C60.0263 24.9769 58.7647 25.7636 58.7647 25.7636C58.5974 25.2539 58.6504 24.8417 58.7863 24.5201C60.6818 24.1095 63.41 22.858 64.6131 21.0619C64.6131 21.0619 64.6118 21.0609 64.6104 21.0609C65.9143 21.0165 66.8724 20.7521 67.4323 20.5444C67.427 20.546 67.4229 20.548 67.4184 20.5496C66.8881 20.7129 69.1306 21.4875 69.3024 22.2429C69.4743 22.9984 69.4357 24.2313 69.8139 24.7675C69.8691 25.0863 71.442 26.6236 71.4836 26.4267C71.5031 26.3349 71.4652 26.2423 71.4384 26.1525C71.3703 25.9235 71.3728 25.674 71.4451 25.4464C71.4531 25.4216 71.4659 25.3987 71.4751 25.3745C71.5066 25.3321 71.5343 25.2519 71.5795 25.128C71.6158 25.0523 71.6528 24.9768 71.682 24.8981C71.6927 24.8708 71.6992 24.8417 71.7072 24.8133C71.7286 24.7655 71.7487 24.7189 71.7751 24.6644C72.0842 24.0259 72.0474 23.5864 71.6408 23.4893C71.5287 23.4625 71.5176 23.3359 71.4259 23.3145C71.303 23.286 71.2031 23.2909 71.117 23.3141C71.2359 23.0927 71.5476 22.6525 72.0452 22.9401C72.289 23.0808 72.3219 23.5113 72.3207 23.7927C72.3195 24.1112 72.2096 24.5325 72.1454 24.9013C72.0492 25.2936 71.9516 25.5899 71.9516 25.5899C72.1763 25.3636 72.6711 24.2759 72.7639 23.6815C72.857 23.0871 72.6812 22.1349 72.0776 22.0687C71.98 22.058 71.8746 22.0647 71.769 22.0935L71.7756 21.7855C71.7756 21.7855 71.7074 21.5423 71.5671 21.1521C70.957 19.6988 70.2723 18.9427 64.8874 17.208C64.8874 17.208 67.2522 16.7279 69.1972 17.0267C68.545 16.3244 67.7618 15.7456 66.8362 15.4784C64.5567 14.8203 61.593 14.4443 58.7885 16.4964C57.4722 17.4596 56.8151 19.0313 56.5415 19.8739C58.0387 18.8289 60.7535 18.6829 62.9979 19.3435C65.1568 19.9789 67.7595 20.2643 67.9867 20.2884C67.9827 20.2909 67.98 20.2933 67.976 20.2956C67.6478 20.3415 64.9772 20.6937 63.1645 20.2909C61.2304 19.8609 58.5175 19.3323 56.4666 21.2408C53.9295 23.6017 54.729 25.2212 55.1311 26.6664C55.4255 27.0397 56.959 27.2365 57.7219 27.3124C57.7523 27.3821 57.7826 27.4524 57.8112 27.5251C58.395 29.0176 58.5868 30.946 59.433 31.6112C60.2791 32.2763 62.1464 35.0541 64.7187 35.8233C64.7187 35.8233 65.4036 36.1693 66.3492 36.2663C66.2602 36.2971 66.1738 36.3272 66.1031 36.3535C64.3726 36.9959 62.6892 40.0937 62.1363 41.9207C61.5834 43.7475 60.9928 45.8427 61.2172 47.0421C61.7483 49.8801 63.2982 51.0551 64.2116 51.4356C64.2754 51.4621 64.3564 51.4824 64.447 51.4989C64.9102 52.2019 65.3778 52.9748 65.77 53.8295C67.1306 56.7941 68.0378 57.0635 68.9448 58.2731C69.852 59.4825 74.2364 66.8907 74.2364 66.8907C76.0507 64.4717 78.4698 50.224 78.4698 50.224C78.4698 50.224 78.4698 58.1217 77.7138 62.8087C76.9579 67.4955 75.446 71.7288 75.446 71.7288C81.1912 69.1585 85.1219 58.5753 85.1219 58.5753C85.1219 58.5753 84.3482 63.8075 81.3507 69.2733C78.661 74.1783 75.2568 76.7599 75.2568 76.7599C75.2568 76.7599 76.6725 80.4016 79.8356 80.5599C82.9987 80.718 91.5376 79.7771 91.5376 79.7771C91.5376 79.7771 90.7794 80.1735 86.5092 81.5571C82.2392 82.9408 77.8095 81.0028 76.7023 81.6355C75.5952 82.268 74.6908 87.5187 74.5503 90.6817C74.4098 93.8449 75.7979 95.1101 75.7979 95.1101C75.7979 95.1101 75.7979 95.1101 78.4866 93.2123C81.1752 91.3143 87.8683 87.0721 87.8683 87.0721C87.8683 87.0721 83.1696 92.5569 79.789 95.5941C77.6119 97.5501 76.4304 99.6965 76.4304 99.6965C76.4304 99.6965 75.9465 105.297 76.1048 108.608C76.2364 111.366 75.9667 112.566 76.7023 114.551C77.357 114.891 78.172 115.182 79.0808 115.421L78.7039 120.033C78.7039 120.033 75.7315 122.041 74.5812 127.904C73.596 132.925 70.4867 135.57 69.764 138.42C69.7011 138.159 69.579 138.083 69.3426 138.635C68.7976 139.906 68.9794 141.42 69.0397 144.024C69.1004 146.628 68.616 147.657 68.0836 149.656C67.5513 151.654 67.7076 153.047 68.0836 155.287C68.4596 157.528 69.5882 159.433 71.526 159.554C73.4638 159.675 74.7322 159.224 75.822 158.194C76.9122 157.165 76.6699 155.348 76.6968 153.531C76.7236 151.715 75.822 150.503 76.4277 148.384C77.0332 146.265 76.3583 145.124 76.3583 145.124C76.3583 145.124 74.2639 144.921 72.683 144.01C71.512 143.335 71.043 142.635 70.7404 141.874C72.1358 142.88 74.3437 142.992 74.3437 142.992C75.3265 140.497 79.5455 136.271 79.5455 136.271C76.5107 137.761 73.9872 138.951 73.9872 138.951C75.4134 136.433 78.9506 134.213 81.4738 131.416C83.9968 128.62 85.8562 125.089 88.7332 120.464C88.9418 120.129 89.2387 119.039 89.4904 117.674C89.1268 117.721 88.7052 117.756 88.1868 117.767C84.3364 117.849 82.5315 117.318 82.5315 117.318C85.6839 117.048 87.4685 116.779 89.8034 115.597C89.8036 115.594 89.804 115.593 89.8042 115.59C90.1872 115.488 90.5586 115.377 90.9002 115.245C91.4772 113.046 91.8471 109.563 92.0363 107.381C91.7366 107.795 90.949 108.742 89.3238 109.936C89.0739 110.12 88.8094 110.308 88.5182 110.503C85.3773 112.6 82.4827 113.075 82.0486 113.137C82.0062 113.145 81.9864 113.146 81.9864 113.146C81.9864 113.146 82.0118 113.144 82.0486 113.137C82.3147 113.084 83.5723 112.656 87.6884 109.381C87.7878 109.302 87.8786 109.231 87.9814 109.149C91.8695 106.03 91.8695 100.747 91.8695 100.747C91.8695 100.747 92.4368 103.381 92.2395 106.524C92.3342 108.859 92.3081 109.067 93.4166 112.669C93.6373 113.386 93.5987 114.524 93.7968 115.319C94.3639 115.398 95.135 115.432 96.0216 115.425C96.0862 116.385 96.5478 117.543 96.4432 118.839C96.3451 120.053 95.5222 121.387 95.4234 122.79C95.2006 125.949 95.0162 129.454 95.0516 132.715C95.122 139.193 95.57 147.636 94.9466 152.959C93.421 152.79 92.3968 153.791 91.9367 154.257C91.3908 154.811 89.0656 155.645 86.8827 156.91C85.2191 157.874 84.6006 158.975 84.7148 159.585H36.7697L57.2783 163.311L113.627 159.585H100.622Z" fill="#000200"/>
<path fill-rule="evenodd" clip-rule="evenodd" d="M66.2668 24.9557C66.2668 24.9557 65.6983 24.7317 65.3445 24.5622C64.9907 24.3929 64.5421 24.3265 64.5421 24.3265C64.9037 23.9701 65.8876 23.6916 65.8876 23.6916C65.8876 23.6916 65.5465 23.381 64.3511 23.7121C63.1557 24.043 62.7764 24.7078 62.5969 25.1197C62.5969 25.1197 62.613 25.3496 63.2844 25.8345C63.916 26.2909 64.5581 26.2394 64.5581 26.2394C64.4038 26.0929 64.2049 25.7966 64.2049 25.7966C64.2049 25.7966 64.3737 25.7164 64.9625 25.5672C65.5515 25.4181 66.2668 24.9557 66.2668 24.9557Z" fill="#000200"/>
<path fill-rule="evenodd" clip-rule="evenodd" d="M0 193.261V192.617L2.1979 192.476V173.663L0 173.521V172.878H7.64227C8.46587 172.878 9.21147 172.917 9.87933 172.99C10.5517 173.068 11.2196 173.209 11.8727 173.414C12.5307 173.619 13.0814 173.887 13.5251 174.218C13.9684 174.555 14.3242 174.993 14.5974 175.539C14.8703 176.085 15.0067 176.728 15.0067 177.46C15.0067 178.039 14.8752 178.576 14.6216 179.068C14.3633 179.555 14.0368 179.965 13.6419 180.286C13.2424 180.608 12.7839 180.896 12.2579 181.149C11.7363 181.402 11.2295 181.592 10.7419 181.729C10.2596 181.86 9.772 181.963 9.2844 182.026V182.085C10.2448 182.085 11.1319 182.197 11.9411 182.421C12.7499 182.645 13.4567 182.976 14.0611 183.415C14.6654 183.854 15.1431 184.424 15.4844 185.136C15.8253 185.847 15.9962 186.652 15.9962 187.558C15.9962 188.377 15.8499 189.113 15.5574 189.766C15.2599 190.419 14.8653 190.96 14.3679 191.389C13.8759 191.818 13.2912 192.174 12.6184 192.461C11.9456 192.744 11.2487 192.949 10.5276 193.075C9.80107 193.197 9.04601 193.261 8.25641 193.261H0ZM5.8535 192.33C6.37016 192.422 6.86213 192.471 7.33986 192.471C8.85586 192.471 10.0449 192.032 10.9077 191.155C11.7703 190.283 12.1992 189.088 12.1992 187.588C12.1992 185.979 11.7555 184.746 10.8639 183.893C9.972 183.04 8.7387 182.616 7.16949 182.616C6.72083 182.616 6.28243 182.65 5.8535 182.718V192.33ZM5.8535 181.739C6.25296 181.797 6.62375 181.826 6.95481 181.826C9.84495 181.826 11.2925 180.398 11.2925 177.547C11.2925 176.329 10.966 175.378 10.3177 174.696C9.6696 174.009 8.68013 173.668 7.33986 173.668C6.86706 173.668 6.37016 173.716 5.8535 173.809V181.739ZM18.1358 193.261V192.617L20.3336 192.476V173.663L18.1358 173.521V172.878H26.1874V173.521L23.9891 173.663V192.315C25.5391 192.417 26.6015 192.471 27.1719 192.471C27.6983 192.471 28.1564 192.456 28.5509 192.427C28.946 192.398 29.3065 192.34 29.638 192.242C29.9645 192.149 30.2423 192.052 30.4616 191.945C30.6856 191.842 30.9004 191.677 31.1003 191.457C31.2999 191.233 31.4608 191.014 31.5825 190.799C31.7092 190.59 31.8701 190.17 32.0701 189.552C32.2696 188.933 32.4455 188.226 32.5963 187.441H33.0838V193.261H18.1358ZM34.1904 173.521V172.878H42.242V173.521L40.0295 173.663V186.997C40.0295 187.387 40.0388 187.734 40.0585 188.041C40.0781 188.343 40.122 188.709 40.1949 189.133C40.2633 189.556 40.3655 189.922 40.5019 190.239C40.6338 190.551 40.8239 190.872 41.0721 191.209C41.3209 191.54 41.6135 191.813 41.9543 192.027C42.3006 192.242 42.7295 192.417 43.2462 192.559C43.7674 192.695 44.3475 192.764 44.9958 192.764C45.7755 192.764 46.4679 192.642 47.0721 192.398C47.6765 192.159 48.1637 191.842 48.5391 191.452C48.9192 191.058 49.2261 190.585 49.4699 190.024C49.7137 189.459 49.8792 188.889 49.9768 188.309C50.0694 187.729 50.1181 187.1 50.1181 186.428V173.663L47.9347 173.521V172.878H53.2182V173.521L51.0347 173.663V186.744C51.0347 187.431 50.976 188.08 50.8687 188.694C50.7568 189.308 50.5569 189.936 50.2595 190.575C49.9669 191.209 49.5871 191.754 49.1192 192.208C48.6513 192.661 48.0274 193.032 47.2427 193.324C46.458 193.611 45.5563 193.758 44.5376 193.758C43.4802 193.758 42.5393 193.68 41.706 193.529C40.8723 193.377 40.1708 193.178 39.6053 192.929C39.0399 192.68 38.5573 192.364 38.1529 191.974C37.7481 191.584 37.4314 191.194 37.2023 190.799C36.9734 190.409 36.7929 189.946 36.6664 189.41C36.5393 188.869 36.4567 188.382 36.4227 187.943C36.3885 187.509 36.3739 186.997 36.3739 186.418V173.663L34.1904 173.521ZM54.9582 193.261V192.617L57.156 192.476V173.663L54.9582 173.521V172.878H69.0339L69.1752 178.697H68.5759C68.4636 178.049 68.3419 177.498 68.21 177.045C68.0834 176.597 67.8982 176.139 67.6594 175.68C67.4204 175.227 67.1427 174.862 66.8259 174.589C66.5043 174.316 66.095 174.096 65.593 173.926C65.0956 173.755 64.5159 173.668 63.8579 173.668C63.0487 173.668 62.03 173.716 60.8115 173.809V182.294C61.0992 182.323 61.6207 182.338 62.3759 182.338C63.3801 182.338 64.0967 182.094 64.5253 181.602C64.9592 181.115 65.1735 180.223 65.1735 178.931H65.9586V186.593H65.1735C65.1735 185.302 64.9543 184.4 64.5208 183.893C64.0868 183.381 63.3703 183.128 62.3759 183.128C61.64 183.128 61.1184 183.142 60.8115 183.172V192.33C62.03 192.422 63.2387 192.471 64.4376 192.471C64.9981 192.471 65.4906 192.427 65.9196 192.335C66.3482 192.247 66.7186 192.096 67.0356 191.886C67.3475 191.677 67.6155 191.443 67.8347 191.18C68.0543 190.921 68.2444 190.585 68.4099 190.175C68.5759 189.766 68.7123 189.362 68.8192 188.952C68.9216 188.543 69.0339 188.041 69.1457 187.441H69.7599L69.6043 193.261H54.9582ZM78.8452 193.261V192.617L81.043 192.476V173.663L78.8452 173.521V172.878H86.4873C87.3109 172.878 88.0567 172.917 88.7244 172.99C89.3968 173.068 90.0647 173.209 90.7178 173.414C91.3759 173.619 91.9265 173.887 92.3701 174.218C92.8136 174.555 93.1692 174.993 93.4424 175.539C93.7153 176.085 93.8517 176.728 93.8517 177.46C93.8517 178.039 93.7203 178.576 93.4667 179.068C93.2086 179.555 92.882 179.965 92.487 180.286C92.0875 180.608 91.6291 180.896 91.1029 181.149C90.5813 181.402 90.0745 181.592 89.5869 181.729C89.1047 181.86 88.6171 181.963 88.1296 182.026V182.085C89.09 182.085 89.977 182.197 90.7862 182.421C91.5951 182.645 92.3018 182.976 92.9062 183.415C93.5106 183.854 93.9883 184.424 94.3295 185.136C94.6704 185.847 94.8412 186.652 94.8412 187.558C94.8412 188.377 94.6949 189.113 94.4024 189.766C94.1049 190.419 93.7104 190.96 93.2131 191.389C92.7209 191.818 92.1363 192.174 91.4635 192.461C90.7907 192.744 90.0937 192.949 89.3727 193.075C88.6463 193.197 87.8911 193.261 87.1016 193.261H78.8452ZM84.6985 192.33C85.2152 192.422 85.7074 192.471 86.185 192.471C87.701 192.471 88.89 192.032 89.753 191.155C90.6154 190.283 91.0444 189.088 91.0444 187.588C91.0444 185.979 90.6007 184.746 89.7091 183.893C88.8171 183.04 87.5839 182.616 86.0145 182.616C85.5659 182.616 85.1275 182.65 84.6985 182.718V192.33ZM84.6985 181.739C85.098 181.797 85.4688 181.826 85.7999 181.826C88.6901 181.826 90.1376 180.398 90.1376 177.547C90.1376 176.329 89.8111 175.378 89.1629 174.696C88.5147 174.009 87.5252 173.668 86.185 173.668C85.7122 173.668 85.2152 173.716 84.6985 173.809V181.739ZM96.9808 193.261V192.617L99.1787 192.476V173.663L96.9808 173.521V172.878H105.032V173.521L102.834 173.663V192.315C104.384 192.417 105.447 192.471 106.017 192.471C106.543 192.471 107.001 192.456 107.396 192.427C107.791 192.398 108.152 192.34 108.483 192.242C108.81 192.149 109.087 192.052 109.307 191.945C109.531 191.842 109.745 191.677 109.945 191.457C110.145 191.233 110.306 191.014 110.428 190.799C110.554 190.59 110.715 190.17 110.915 189.552C111.115 188.933 111.291 188.226 111.441 187.441H111.929V193.261H96.9808ZM113.957 183.133C113.957 181.173 114.307 179.385 115.014 177.766C115.716 176.144 116.754 174.842 118.119 173.858C119.483 172.873 121.058 172.381 122.837 172.381C125.522 172.381 127.686 173.326 129.329 175.222C130.971 177.118 131.79 179.604 131.79 182.674C131.79 183.8 131.678 184.892 131.454 185.945C131.229 187.002 130.884 188.007 130.406 188.952C129.928 189.898 129.353 190.726 128.671 191.438C127.988 192.144 127.155 192.71 126.166 193.129C125.176 193.548 124.094 193.758 122.924 193.758C120.137 193.758 117.943 192.788 116.349 190.843C114.756 188.903 113.957 186.33 113.957 183.133ZM117.782 182.821C117.782 184.692 117.968 186.383 118.338 187.894C118.713 189.401 119.284 190.624 120.059 191.564C120.838 192.5 121.764 192.968 122.837 192.968C124.435 192.968 125.693 192.042 126.599 190.185C127.511 188.328 127.964 185.867 127.964 182.791C127.964 179.594 127.521 177.192 126.629 175.583C125.737 173.975 124.503 173.17 122.924 173.17C122.374 173.17 121.847 173.282 121.345 173.511C120.848 173.741 120.375 174.106 119.941 174.613C119.503 175.115 119.128 175.739 118.811 176.475C118.499 177.211 118.246 178.122 118.06 179.209C117.875 180.291 117.782 181.495 117.782 182.821ZM134.534 183.133C134.534 181.173 134.885 179.385 135.592 177.766C136.294 176.144 137.332 174.842 138.696 173.858C140.061 172.873 141.635 172.381 143.414 172.381C146.1 172.381 148.264 173.326 149.906 175.222C151.549 177.118 152.368 179.604 152.368 182.674C152.368 183.8 152.256 184.892 152.031 185.945C151.807 187.002 151.461 188.007 150.983 188.952C150.506 189.898 149.931 190.726 149.248 191.438C148.566 192.144 147.733 192.71 146.743 193.129C145.754 193.548 144.672 193.758 143.502 193.758C140.714 193.758 138.521 192.788 136.927 190.843C135.333 188.903 134.534 186.33 134.534 183.133ZM138.36 182.821C138.36 184.692 138.545 186.383 138.916 187.894C139.291 189.401 139.861 190.624 140.636 191.564C141.416 192.5 142.342 192.968 143.414 192.968C145.013 192.968 146.27 192.042 147.177 190.185C148.088 188.328 148.542 185.867 148.542 182.791C148.542 179.594 148.098 177.192 147.206 175.583C146.314 173.975 145.081 173.17 143.502 173.17C142.951 173.17 142.425 173.282 141.923 173.511C141.426 173.741 140.953 174.106 140.519 174.613C140.081 175.115 139.705 175.739 139.388 176.475C139.076 177.211 138.823 178.122 138.638 179.209C138.453 180.291 138.36 181.495 138.36 182.821ZM154.585 193.261V192.617L156.783 192.476V173.663L154.585 173.521V172.878H161.784C163.714 172.878 165.371 173.122 166.751 173.604C168.135 174.092 169.227 174.798 170.03 175.719C170.835 176.645 171.42 177.718 171.79 178.936C172.156 180.155 172.336 181.563 172.336 183.162C172.336 184.312 172.219 185.389 171.98 186.383C171.741 187.378 171.366 188.304 170.845 189.152C170.328 190.005 169.68 190.736 168.905 191.34C168.125 191.945 167.175 192.417 166.044 192.754C164.918 193.09 163.655 193.261 162.252 193.261H154.585ZM160.439 192.33C160.955 192.422 161.418 192.471 161.838 192.471C162.812 192.471 163.675 192.315 164.43 191.998C165.191 191.686 165.825 191.253 166.331 190.692C166.843 190.136 167.262 189.454 167.599 188.65C167.93 187.846 168.169 186.973 168.32 186.033C168.466 185.087 168.539 184.059 168.539 182.933C168.539 181.831 168.485 180.847 168.383 179.979C168.276 179.112 168.081 178.268 167.788 177.45C167.501 176.631 167.116 175.958 166.638 175.422C166.161 174.891 165.532 174.467 164.752 174.145C163.972 173.829 163.056 173.668 162.008 173.668C161.477 173.668 160.955 173.716 160.439 173.809V192.33Z" fill="#000200"/>
<path fill-rule="evenodd" clip-rule="evenodd" d="M50.4523 206.721H54.3405V206.203H50.4523V206.721ZM118.432 206.721H122.32V206.203H118.432V206.721ZM61.4045 209.918C62.9057 209.918 63.8884 209.097 63.8884 207.845C63.8884 206.538 62.7221 206.116 61.3829 205.674C60.3028 205.317 59.5358 205.036 59.5358 204.129C59.5358 203.287 60.1947 202.671 61.2424 202.671C62.3225 202.671 62.9057 203.297 63.1865 203.978L63.6726 203.708C63.3052 202.833 62.4844 202.12 61.2424 202.12C59.9569 202.12 58.9528 202.909 58.9528 204.151C58.9528 205.468 60.0866 205.825 61.3505 206.235C62.5062 206.602 63.3052 206.948 63.3052 207.855C63.3052 208.719 62.668 209.367 61.4045 209.367C60.1621 209.367 59.3953 208.752 59.1364 207.845L58.6394 208.136C58.9849 209.205 59.9895 209.918 61.4045 209.918ZM65.2385 202.239V209.799H65.8111V202.239H65.2385ZM72.6588 202.239V208.741L68.1873 202.239H67.6903V209.799H68.2628V203.297L72.7235 209.799H73.231V202.239H72.6588ZM78.6097 209.918C80.0248 209.918 81.2561 209.184 81.8715 208.071L81.3639 207.78C80.8672 208.73 79.8085 209.367 78.6097 209.367C76.6224 209.367 75.2508 207.877 75.2508 206.019C75.2508 204.161 76.6224 202.671 78.6097 202.671C79.798 202.671 80.8456 203.297 81.3422 204.226L81.8499 203.935C81.2236 202.833 80.0032 202.12 78.6097 202.12C76.3091 202.12 74.6783 203.859 74.6783 206.019C74.6783 208.179 76.3091 209.918 78.6097 209.918ZM83.7941 209.259V206.257H87.2501V205.717H83.7941V202.779H87.5203V202.239H83.2214V209.799H87.5744V209.259H83.7941ZM91.3872 209.799H96.1394V209.249H92.208L94.5517 206.84C95.3187 206.062 95.9664 205.231 95.9664 204.291C95.9664 202.887 94.8756 202.12 93.7198 202.12C92.7372 202.12 91.8837 202.595 91.4303 203.524L91.9163 203.816C92.2727 203.06 92.8993 202.671 93.7198 202.671C94.6379 202.671 95.3832 203.254 95.3832 204.291C95.3832 205.036 94.8216 205.749 94.1628 206.43L91.3872 209.281V209.799ZM99.9088 209.918C101.723 209.918 102.739 208.352 102.739 206.019C102.739 203.686 101.723 202.12 99.9088 202.12C98.0942 202.12 97.0791 203.686 97.0791 206.019C97.0791 208.352 98.0942 209.918 99.9088 209.918ZM99.9088 209.367C98.5048 209.367 97.6623 208.136 97.6623 206.019C97.6623 203.902 98.5048 202.671 99.9088 202.671C101.313 202.671 102.155 203.902 102.155 206.019C102.155 208.136 101.313 209.367 99.9088 209.367ZM103.668 209.799H108.42V209.249H104.489L106.832 206.84C107.599 206.062 108.247 205.231 108.247 204.291C108.247 202.887 107.156 202.12 106 202.12C105.018 202.12 104.164 202.595 103.711 203.524L104.197 203.816C104.553 203.06 105.18 202.671 106 202.671C106.918 202.671 107.664 203.254 107.664 204.291C107.664 205.036 107.102 205.749 106.443 206.43L103.668 209.281V209.799ZM111.93 205.382L113.745 202.779V202.239H109.392V202.779H113.086L111.174 205.49L111.422 205.868H111.584C112.707 205.868 113.528 206.527 113.528 207.617C113.528 208.709 112.707 209.367 111.606 209.367C110.656 209.367 109.953 208.957 109.673 208.201L109.197 208.482C109.565 209.41 110.504 209.918 111.606 209.918C112.945 209.918 114.101 209.076 114.101 207.617C114.101 206.289 113.129 205.501 111.93 205.382Z" fill="#000200"/>
</svg>
